<?xml version="1.0" encoding="utf-8"?>
<!-- Generator: Adobe Illustrator 19.2.1, SVG Export Plug-In . SVG Version: 6.00 Build 0)  -->
<svg version="1.1" id="Layer_1" xmlns="http://www.w3.org/2000/svg" xmlns:xlink="http://www.w3.org/1999/xlink" x="0px" y="0px"
	 viewBox="0 0 125 78" style="enable-background:new 0 0 125 78;" xml:space="preserve">
<style type="text/css">
	.st0{clip-path:url(#SVGID_2_);}
	.st1{fill:#6BCBDB;}
	.st2{fill:#020202;}
</style>
<g>
	<defs>
		<rect id="SVGID_1_" x="-0.5" width="125.5" height="78.5"/>
	</defs>
	<clipPath id="SVGID_2_">
		<use xlink:href="#SVGID_1_"  style="overflow:visible;"/>
	</clipPath>
	<g class="st0">
		<g>
			<rect x="-6.2" y="19" transform="matrix(0.8584 0.513 -0.513 0.8584 26.3447 -34.4293)" class="st1" width="163.5" height="23"/>
			<path class="st2" d="M140,83l-0.4-0.3L-1.2-1.4L11.1-22l141.2,84.4L140,83z M0.1-1.7l139.5,83.4l11.3-18.9L11.4-20.6L0.1-1.7z"/>
		</g>
		<g>
			<path d="M51.3,11.2l-1.1,1.9l-3.8-2.3l-0.8,1.3l3.5,2.1L47.9,16l-3.5-2.1l-0.9,1.4l3.8,2.3l-1.1,1.9l-6-3.6l5-8.3L51.3,11.2z"/>
			<path d="M54.6,18.8l0.3,6l-2.4-1.5l-0.1-3.6l-3.2,1.6l-2.4-1.4l5.4-2.6l-0.2-5.7l2.4,1.5l0.1,3.3l3-1.5l2.4,1.4L54.6,18.8z"/>
			<path d="M64.2,18.8c0.9,0.5,1.5,1.2,1.8,1.8l-1.3,2.1c-0.3-0.8-0.8-1.4-1.5-1.8c-1.4-0.8-2.8-0.5-3.6,0.9
				c-0.9,1.4-0.5,2.8,0.9,3.6c0.7,0.4,1.5,0.6,2.3,0.5l-1.3,2.1c-0.7,0-1.6-0.2-2.5-0.7c-2.5-1.5-3.3-4.3-1.7-6.9
				C58.9,17.9,61.7,17.2,64.2,18.8z"/>
			<path d="M67.3,20.8l2.2,1.3l-3.9,6.5l3.7,2.2l-1.1,1.9l-5.9-3.5L67.3,20.8z"/>
			<path d="M71,29.7l2.9-4.9l2.2,1.3l-2.8,4.7c-0.7,1.2-0.5,2.1,0.4,2.7c0.9,0.5,1.8,0.3,2.5-0.9l2.8-4.7l2.2,1.3l-3,4.9
				c-1.4,2.3-3.5,2.7-5.7,1.4C70.3,34.1,69.6,32,71,29.7z"/>
			<path d="M78.7,35.5c0.4,0.9,1.2,1.9,2.2,2.5c0.7,0.4,1.4,0.6,1.7,0.1c0.2-0.4,0.1-0.7-0.3-1.1l-1-1.1c-1.2-1.2-1.5-2.4-0.7-3.8
				c1-1.7,2.9-1.7,4.7-0.7c1.1,0.7,1.8,1.4,2.2,2.2l-1.2,2c-0.4-1-1.1-1.8-2-2.3c-0.6-0.4-1.2-0.5-1.5-0.1c-0.2,0.4-0.1,0.7,0.3,1.1
				l1,1.1c1.2,1.4,1.5,2.6,0.7,3.9c-1.1,1.8-3.1,1.7-5,0.6c-1.1-0.7-1.9-1.6-2.3-2.3L78.7,35.5z"/>
			<path d="M86.4,43.6l-2.2-1.3l5-8.3l2.2,1.3L86.4,43.6z"/>
			<path d="M90.3,45.9l1.9-10.2l2.3,1.4l-1.3,6.5l5.1-4.3l2.2,1.3l-8.1,6.5L90.3,45.9z"/>
			<path d="M107.2,44.6l-1.1,1.9l-3.8-2.3l-0.8,1.3l3.5,2.1l-1.1,1.8l-3.5-2.1l-0.9,1.4l3.8,2.3l-1.1,1.9l-6-3.6l5-8.3L107.2,44.6z"
				/>
		</g>
	</g>
</g>
</svg>
