<?xml version="1.0" standalone="no"?>
<!DOCTYPE svg PUBLIC "-//W3C//DTD SVG 1.1//EN" "http://www.w3.org/Graphics/SVG/1.1/DTD/svg11.dtd" >
<svg>
<metadata>
Created by FontForge 20110222 at Mon Mar  7 08:18:35 2011
 By www-data
Copyright [c] 2008 by ShyFoundry. All rights reserved. Freeware for personal use only. To purchase a commercial license, please visit our site at http://www.shyfoundry.com.
</metadata>
<defs>
<font id="SFDistantGalaxyAlternate" horiz-adv-x="750" >
  <font-face 
    font-family="SF Distant Galaxy Alternate"
    font-weight="400"
    font-stretch="normal"
    units-per-em="1000"
    panose-1="2 0 5 3 0 0 0 0 0 0"
    ascent="800"
    descent="-200"
    x-height="667"
    cap-height="667"
    bbox="-124 -166 1263 833"
    underline-thickness="10"
    underline-position="-70"
    unicode-range="U+0020-2122"
  />
    <missing-glyph />
    <glyph glyph-name="space" unicode=" " horiz-adv-x="375" 
 />
    <glyph glyph-name="ampersand" unicode="&#x26;" horiz-adv-x="708" 
d="M229 0c-113 0 -208 92 -208 208c0 47 14 89 42 125c-28 36 -42 77 -42 123c0 118 92 211 208 211h459v-192h-417c-17 0 -25 -10 -25 -29c0 -17 8 -25 25 -25h125v-175h-125c-17 0 -25 -10 -25 -28c0 -17 8 -26 25 -26h205v125h212v-317h-459z" />
    <glyph glyph-name="quotesingle" unicode="'" horiz-adv-x="208" 
d="M188 583c0 -73 -59 -162 -109 -166l25 83c-46 0 -83 38 -83 83s38 84 83 84s84 -38 84 -84z" />
    <glyph glyph-name="parenleft" unicode="(" horiz-adv-x="292" 
d="M146 -83c-83 120 -125 259 -125 416c0 159 42 298 125 417h125c-56 -131 -83 -269 -83 -417c0 -147 27 -286 83 -416h-125z" />
    <glyph glyph-name="parenright" unicode=")" horiz-adv-x="292" 
d="M271 333c0 -157 -42 -296 -125 -416h-125c55 131 83 270 83 416c0 147 -28 286 -83 417h125c83 -120 125 -259 125 -417z" />
    <glyph glyph-name="asterisk" unicode="*" horiz-adv-x="380" 
d="M309 356l-69 40v-79h-100v79l-69 -40l-50 87l69 40l-69 40l50 87l69 -40v80h100v-80l69 40l50 -87l-69 -40l69 -40z" />
    <glyph glyph-name="plus" unicode="+" horiz-adv-x="375" 
d="M250 271v-104h-125v104h-104v125h104v104h125v-104h104v-125h-104z" />
    <glyph glyph-name="comma" unicode="," horiz-adv-x="208" 
d="M188 83c0 -72 -59 -161 -109 -166l25 83c-46 0 -83 38 -83 83s38 84 83 84s84 -38 84 -84z" />
    <glyph glyph-name="hyphen" unicode="-" horiz-adv-x="375" 
d="M21 271v125h333v-125h-333z" />
    <glyph glyph-name="period" unicode="." horiz-adv-x="208" 
d="M188 83c0 -45 -38 -83 -84 -83s-83 38 -83 83c0 47 37 84 83 84s84 -38 84 -84z" />
    <glyph glyph-name="slash" unicode="/" horiz-adv-x="442" 
d="M157 -86l-157 57l285 782l157 -56z" />
    <glyph glyph-name="zero" unicode="0" 
d="M504 333c0 67 -60 125 -129 125c-70 0 -129 -57 -129 -125c0 -72 63 -125 129 -125c70 0 129 58 129 125zM729 333c0 -183 -159 -333 -354 -333s-354 150 -354 333c0 185 160 334 354 334s354 -149 354 -334z" />
    <glyph glyph-name="one" unicode="1" horiz-adv-x="358" 
d="M104 0v475h-83l83 192h233v-667h-233z" />
    <glyph glyph-name="two" unicode="2" 
d="M21 0v211c0 111 97 210 208 210h250c17 0 25 8 25 25c0 19 -8 29 -25 29h-416v192h458c111 0 208 -99 208 -211s-97 -210 -208 -210h-250c-19 0 -25 -13 -25 -54h483v-192h-708z" />
    <glyph glyph-name="three" unicode="3" horiz-adv-x="708" 
d="M688 208c0 -114 -95 -208 -209 -208h-458v192h417c16 0 24 9 24 26c0 18 -8 28 -24 28h-250v175h250c16 0 24 8 24 25c0 19 -8 29 -24 29h-417v192h458c116 0 209 -94 209 -211c0 -46 -14 -87 -42 -123c28 -36 42 -78 42 -125z" />
    <glyph glyph-name="four" unicode="4" 
d="M688 125v-125h-234v125h-433l83 458h242l-46 -250h154v334h234v-334h41v-208h-41z" />
    <glyph glyph-name="five" unicode="5" 
d="M729 211c0 -114 -96 -211 -208 -211h-500v192h458c17 0 25 9 25 29c0 16 -8 25 -25 25h-458v421h667v-192h-442v-54h275c122 0 208 -111 208 -210z" />
    <glyph glyph-name="six" unicode="6" 
d="M504 221c0 16 -8 25 -25 25h-208c-17 0 -25 -9 -25 -25c0 -20 8 -29 25 -29h208c17 0 25 9 25 29zM729 211c0 -114 -96 -211 -208 -211h-292c-111 0 -208 98 -208 210v248c0 112 97 209 208 209h459v-192h-417c-17 0 -25 -8 -25 -25c0 -19 8 -29 25 -29h250
c122 0 208 -111 208 -210z" />
    <glyph glyph-name="seven" unicode="7" 
d="M288 0h-267l315 475h-315v192h708z" />
    <glyph glyph-name="eight" unicode="8" 
d="M504 217c0 19 -8 29 -25 29h-208c-17 0 -25 -10 -25 -29c0 -17 8 -25 25 -25h208c17 0 25 8 25 25zM487 446c0 19 -8 29 -25 29h-174c-17 0 -25 -10 -25 -29c0 -17 8 -25 25 -25h174c17 0 25 8 25 25zM729 193c0 -103 -97 -193 -208 -193h-292c-113 0 -208 88 -208 194
c0 61 24 112 73 151c-38 37 -56 83 -56 136c0 103 99 186 208 186h258c114 0 208 -86 208 -188c0 -52 -18 -97 -56 -134c49 -39 73 -89 73 -152z" />
    <glyph glyph-name="nine" unicode="9" 
d="M504 446c0 19 -8 29 -25 29h-208c-17 0 -25 -10 -25 -29c0 -17 8 -25 25 -25h208c17 0 25 8 25 25zM729 208c0 -110 -96 -208 -208 -208h-458v192h416c17 0 25 8 25 25c0 19 -8 29 -25 29h-250c-111 0 -208 98 -208 210s97 211 208 211h292c111 0 208 -99 208 -210v-249z
" />
    <glyph glyph-name="colon" unicode=":" horiz-adv-x="208" 
d="M188 83c0 -45 -38 -83 -84 -83s-83 38 -83 83c0 47 37 84 83 84s84 -38 84 -84zM188 417c0 -46 -37 -84 -84 -84c-46 0 -83 37 -83 84c0 45 37 83 83 83s84 -38 84 -83z" />
    <glyph glyph-name="semicolon" unicode=";" horiz-adv-x="208" 
d="M188 83c0 -72 -59 -161 -109 -166l25 83c-46 0 -83 38 -83 83s38 84 83 84s84 -38 84 -84zM188 417c0 -46 -37 -84 -84 -84c-46 0 -83 37 -83 84c0 45 37 83 83 83s84 -38 84 -83z" />
    <glyph glyph-name="less" unicode="&#x3c;" horiz-adv-x="375" 
d="M-62 0v208h416v-208h-416z" />
    <glyph glyph-name="equal" unicode="=" horiz-adv-x="458" 
d="M21 188v125h417v-125h-417zM21 354v125h417v-125h-417z" />
    <glyph glyph-name="greater" unicode="&#x3e;" horiz-adv-x="375" 
d="M-62 458v209h416v-209h-416z" />
    <glyph glyph-name="question" unicode="?" horiz-adv-x="625" 
d="M188 83c0 -45 -38 -83 -84 -83s-83 38 -83 83c0 47 37 84 83 84s84 -38 84 -84zM604 456c0 -112 -97 -210 -208 -210h-175c-24 0 -33 -17 -33 -54h-167c0 75 16 117 62 165c42 43 91 64 146 64h125c17 0 25 8 25 25c0 19 -8 29 -25 29h-333v192h375
c111 0 208 -99 208 -211z" />
    <glyph glyph-name="at" unicode="@" horiz-adv-x="608" 
d="M304 375l-21 -79h42zM348 208l-8 31h-71l-9 -31h-100l66 250h156l65 -250h-99zM504 333c0 109 -91 200 -200 200s-200 -91 -200 -200s91 -200 200 -200s200 92 200 200zM587 333c0 -156 -127 -283 -283 -283s-283 127 -283 283s127 284 283 284c154 0 283 -130 283 -284z
" />
    <glyph glyph-name="A" unicode="A" horiz-adv-x="792" 
d="M396 444l-51 -194h102zM513 0l-22 83h-190l-22 -83h-258l120 458h-203v209h658l175 -667h-258z" />
    <glyph glyph-name="B" unicode="B" 
d="M479 217c0 26 -23 50 -50 50h-175v-100h175c27 0 50 23 50 50zM471 450c0 27 -24 50 -50 50h-167v-100h167c26 0 50 23 50 50zM729 194c0 -110 -108 -194 -233 -194h-475v458h-83v209h516c130 0 234 -88 234 -196c0 -45 -14 -84 -42 -118c55 -38 83 -90 83 -159z" />
    <glyph glyph-name="C" unicode="C" horiz-adv-x="667" 
d="M375 0c-195 0 -354 150 -354 333c0 185 160 334 354 334h271v-209h-271c-70 0 -129 -57 -129 -125c0 -72 63 -125 129 -125h354v-208h-354z" />
    <glyph glyph-name="D" unicode="D" 
d="M504 333c0 67 -60 125 -129 125h-121v-250h121c70 0 129 58 129 125zM729 333c0 -183 -159 -333 -354 -333h-354v458h-83v209h437c194 0 354 -149 354 -334z" />
    <glyph glyph-name="E" unicode="E" horiz-adv-x="708" 
d="M21 0v458h-83v209h750v-209h-417v-37h250v-175h-250v-38h417v-208h-667z" />
    <glyph glyph-name="F" unicode="F" horiz-adv-x="708" 
d="M271 458v-37h250v-175h-250v-246h-250v458h-83v209h750v-209h-417z" />
    <glyph glyph-name="G" unicode="G" 
d="M375 0c-195 0 -354 150 -354 333c0 185 160 334 354 334c92 0 173 -31 243 -91l-153 -153c-27 24 -57 35 -90 35c-70 0 -129 -57 -129 -125c0 -72 63 -125 129 -125h104v125h250v-333h-354z" />
    <glyph glyph-name="H" unicode="H" 
d="M479 0v246h-208v-246h-250v458h-83v209h333v-246h208v246h250v-667h-250z" />
    <glyph glyph-name="I" unicode="I" horiz-adv-x="292" 
d="M21 0v458h-83v209h333v-667h-250z" />
    <glyph glyph-name="J" unicode="J" horiz-adv-x="438" 
d="M417 42c0 -159 -107 -208 -354 -208l-42 208c126 0 171 19 171 83v333h-254v209h479v-625z" />
    <glyph glyph-name="K" unicode="K" 
d="M554 0c-56 0 -111 28 -166 83l-117 117v-200h-250v458h-83v209h333v-219l153 219h305l-243 -349l100 -100c6 -6 20 -10 40 -10h103v-208h-175z" />
    <glyph glyph-name="L" unicode="L" horiz-adv-x="667" 
d="M21 0v458h-83v209h333v-459h375v-208h-625z" />
    <glyph glyph-name="M" unicode="M" horiz-adv-x="833" 
d="M563 0v208l-146 -208l-146 208v-208h-250v458h-83v209h333l146 -209l146 209h250v-667h-250z" />
    <glyph glyph-name="N" unicode="N" 
d="M479 0l-208 267v-267h-250v458h-83v209h333l208 -267v267h250v-667h-250z" />
    <glyph glyph-name="O" unicode="O" 
d="M504 333c0 67 -60 125 -129 125c-70 0 -129 -57 -129 -125c0 -72 63 -125 129 -125c70 0 129 58 129 125zM729 333c0 -183 -159 -333 -354 -333s-354 150 -354 333c0 185 160 334 354 334s354 -149 354 -334z" />
    <glyph glyph-name="P" unicode="P" 
d="M729 433c0 -124 -109 -233 -233 -233h-225v-200h-250v358h408c27 0 50 23 50 50s-23 50 -50 50h-491v209h558c124 0 233 -110 233 -234z" />
    <glyph glyph-name="Q" unicode="Q" horiz-adv-x="792" 
d="M504 333c0 67 -60 125 -129 125c-70 0 -129 -57 -129 -125c0 -72 63 -125 129 -125c70 0 129 58 129 125zM375 0c-195 0 -354 150 -354 333c0 185 160 334 354 334s354 -149 354 -334c0 -42 -8 -84 -25 -125h67v-208h-396z" />
    <glyph glyph-name="R" unicode="R" horiz-adv-x="792" 
d="M554 0c-56 0 -111 28 -166 83l-117 117v-200h-250v358h408c27 0 50 23 50 50s-23 50 -50 50h-491v209h558c125 0 233 -104 233 -225c0 -91 -58 -174 -143 -207c10 -18 25 -27 43 -27h142v-208h-217z" />
    <glyph glyph-name="S" unicode="S" horiz-adv-x="708" 
d="M422 458c-11 0 -16 -6 -16 -19c0 -3 1 -5 2 -6l121 -91c50 -38 75 -89 75 -152c0 -102 -96 -190 -209 -190h-457v208h331c11 0 16 7 16 21c0 2 -1 4 -2 5l-113 83c-44 32 -66 81 -66 147c0 109 97 203 209 203h375v-209h-266z" />
    <glyph glyph-name="T" unicode="T" 
d="M500 458v-458h-250v458h-312v209h791v-209h-229z" />
    <glyph glyph-name="U" unicode="U" 
d="M729 333c0 -186 -162 -333 -354 -333c-195 0 -354 150 -354 333v125h-83v209h308v-334c0 -72 63 -125 129 -125c70 0 129 58 129 125v334h225v-334z" />
    <glyph glyph-name="V" unicode="V" horiz-adv-x="792" 
d="M596 0h-400l-120 458h-138v209h341l117 -444l117 444h258z" />
    <glyph glyph-name="W" unicode="W" horiz-adv-x="1075" 
d="M879 0h-283l-58 223l-59 -223h-283l-120 458h-138v209h341l58 -223l59 223h283l58 -223l59 223h258z" />
    <glyph glyph-name="X" unicode="X" horiz-adv-x="875" 
d="M546 0l-108 138l-109 -138h-308l262 333l-98 125h-247v209h391l109 -138l108 138h308l-262 -334l262 -333h-308z" />
    <glyph glyph-name="Y" unicode="Y" horiz-adv-x="825" 
d="M538 208v-208h-250v208l-146 250h-204v209h366l109 -196l108 196h283z" />
    <glyph glyph-name="Z" unicode="Z" 
d="M21 0l303 458h-386v209h791l-303 -459h303v-208h-708z" />
    <glyph glyph-name="bracketleft" unicode="[" horiz-adv-x="292" 
d="M21 -83v833h250v-167h-83v-500h83v-166h-250z" />
    <glyph glyph-name="backslash" unicode="\" horiz-adv-x="442" 
d="M285 -86l-285 783l157 56l285 -782z" />
    <glyph glyph-name="bracketright" unicode="]" horiz-adv-x="292" 
d="M21 -83v166h83v500h-83v167h250v-833h-250z" />
    <glyph glyph-name="asciicircum" unicode="^" horiz-adv-x="475" 
d="M354 375l-117 204l-116 -204h-100l167 292h100l166 -292h-100z" />
    <glyph glyph-name="underscore" unicode="_" horiz-adv-x="333" 
d="M0 0v125h333v-125h-333z" />
    <glyph glyph-name="grave" unicode="`" horiz-adv-x="417" 
d="M21 750l83 83l292 -108v-17z" />
    <glyph glyph-name="a" unicode="a" horiz-adv-x="792" 
d="M396 444l-51 -194h102zM651 458l120 -458h-258l-22 83h-190l-22 -83h-258l175 667h658v-209h-203z" />
    <glyph glyph-name="b" unicode="b" 
d="M479 217c0 26 -23 50 -50 50h-175v-100h175c27 0 50 23 50 50zM471 450c0 27 -24 50 -50 50h-167v-100h167c26 0 50 23 50 50zM729 194c0 -110 -108 -194 -233 -194h-475v667h433c130 0 234 -88 234 -196c0 -45 -14 -84 -42 -118c55 -38 83 -90 83 -159z" />
    <glyph glyph-name="c" unicode="c" horiz-adv-x="667" 
d="M375 458c-70 0 -129 -57 -129 -125c0 -72 63 -125 129 -125h271v-208h-271c-195 0 -354 150 -354 333c0 185 160 334 354 334h354v-209h-354z" />
    <glyph glyph-name="d" unicode="d" 
d="M504 333c0 67 -60 125 -129 125h-121v-250h121c70 0 129 58 129 125zM729 333c0 -183 -159 -333 -354 -333h-354v667h354c194 0 354 -149 354 -334z" />
    <glyph glyph-name="e" unicode="e" horiz-adv-x="708" 
d="M271 458v-37h250v-175h-250v-38h417v-208h-667v667h750v-209h-500z" />
    <glyph glyph-name="f" unicode="f" horiz-adv-x="708" 
d="M271 458v-37h250v-175h-250v-246h-250v667h750v-209h-500z" />
    <glyph glyph-name="g" unicode="g" 
d="M375 458c-70 0 -129 -57 -129 -125c0 -72 63 -125 129 -125h104v125h250v-333h-354c-195 0 -354 150 -354 333c0 185 160 334 354 334h438v-209h-438z" />
    <glyph glyph-name="h" unicode="h" 
d="M729 458v-458h-250v246h-208v-246h-250v667h250v-246h208v246h334v-209h-84z" />
    <glyph glyph-name="i" unicode="i" horiz-adv-x="292" 
d="M271 458v-458h-250v667h333v-209h-83z" />
    <glyph glyph-name="j" unicode="j" horiz-adv-x="438" 
d="M417 458v-416c0 -159 -107 -208 -354 -208l-42 208c126 0 171 19 171 83v542h308v-209h-83z" />
    <glyph glyph-name="k" unicode="k" 
d="M554 0c-56 0 -111 28 -166 83l-117 117v-200h-250v667h250v-219l153 219h305l-243 -349l100 -100c6 -6 20 -10 40 -10h187v-208h-259z" />
    <glyph glyph-name="l" unicode="l" horiz-adv-x="667" 
d="M21 0v667h250v-459h458v-208h-708z" />
    <glyph glyph-name="m" unicode="m" horiz-adv-x="833" 
d="M813 458v-458h-250v208l-146 -208l-146 208v-208h-250v667h250l146 -209l146 209h333v-209h-83z" />
    <glyph glyph-name="n" unicode="n" 
d="M729 458v-458h-250l-208 267v-267h-250v667h250l208 -267v267h334v-209h-84z" />
    <glyph glyph-name="o" unicode="o" 
d="M504 333c0 67 -60 125 -129 125c-70 0 -129 -57 -129 -125c0 -72 63 -125 129 -125c70 0 129 58 129 125zM729 333c0 -183 -159 -333 -354 -333s-354 150 -354 333c0 185 160 334 354 334s354 -149 354 -334z" />
    <glyph glyph-name="p" unicode="p" 
d="M479 433c0 27 -23 50 -50 50h-158v-100h158c27 0 50 24 50 50zM729 433c0 -124 -109 -233 -233 -233h-225v-200h-250v667h475c124 0 233 -110 233 -234z" />
    <glyph glyph-name="q" unicode="q" horiz-adv-x="792" 
d="M504 333c0 67 -60 125 -129 125c-70 0 -129 -57 -129 -125c0 -72 63 -125 129 -125c70 0 129 58 129 125zM375 0c-195 0 -354 150 -354 333c0 185 160 334 354 334s354 -149 354 -334c0 -42 -8 -84 -25 -125h67v-208h-396z" />
    <glyph glyph-name="r" unicode="r" horiz-adv-x="792" 
d="M479 433c0 27 -23 50 -50 50h-158v-100h158c27 0 50 24 50 50zM554 0c-56 0 -111 28 -166 83l-117 117v-200h-250v667h475c125 0 233 -104 233 -225c0 -91 -58 -174 -143 -207c10 -18 25 -27 43 -27h225v-208h-300z" />
    <glyph glyph-name="s" unicode="s" horiz-adv-x="708" 
d="M422 458c-11 0 -16 -6 -16 -19c0 -3 1 -5 2 -6l121 -91c50 -38 75 -89 75 -152c0 -102 -96 -190 -209 -190h-374v208h248c11 0 16 7 16 21c0 2 -1 4 -2 5l-113 83c-44 32 -66 81 -66 147c0 109 97 203 209 203h458v-209h-349z" />
    <glyph glyph-name="t" unicode="t" 
d="M500 458v-458h-250v458h-229v209h792v-209h-313z" />
    <glyph glyph-name="u" unicode="u" 
d="M729 458v-125c0 -183 -159 -333 -354 -333s-354 150 -354 333v334h225v-334c0 -72 63 -125 129 -125c70 0 129 58 129 125v334h309v-209h-84z" />
    <glyph glyph-name="v" unicode="v" horiz-adv-x="792" 
d="M716 458l-120 -458h-400l-175 667h258l117 -444l117 444h341v-209h-138z" />
    <glyph glyph-name="w" unicode="w" horiz-adv-x="1075" 
d="M999 458l-120 -458h-283l-58 223l-59 -223h-283l-175 667h258l58 -223l59 223h283l58 -223l59 223h342v-209h-139z" />
    <glyph glyph-name="x" unicode="x" horiz-adv-x="875" 
d="M690 458l-98 -125l262 -333h-308l-108 138l-109 -138h-308l262 333l-262 334h308l109 -138l108 138h392v-209h-248z" />
    <glyph glyph-name="y" unicode="y" horiz-adv-x="825" 
d="M683 458l-145 -250v-208h-250v208l-267 459h283l109 -196l108 196h367v-209h-205z" />
    <glyph glyph-name="z" unicode="z" 
d="M21 0l303 458h-303v209h708l-303 -459h387v-208h-792z" />
    <glyph glyph-name="braceleft" unicode="{" horiz-adv-x="375" 
d="M271 -83c-90 0 -167 77 -167 166v125c0 45 -37 82 -83 84v75c47 2 83 38 83 83v133c0 93 80 167 167 167h83v-167h-83v-166c0 -46 -38 -82 -83 -84c46 -3 83 -39 83 -83v-167h83v-166h-83z" />
    <glyph glyph-name="bar" unicode="|" horiz-adv-x="231" 
d="M21 -83v833h167v-833h-167z" />
    <glyph glyph-name="braceright" unicode="}" horiz-adv-x="375" 
d="M354 292c-46 -2 -83 -39 -83 -84v-125c0 -89 -77 -166 -167 -166h-83v166h83v167c0 44 37 81 84 83c-47 2 -84 39 -84 84v166h-83v167h83c89 0 167 -77 167 -167v-133c0 -45 36 -81 83 -83v-75z" />
    <glyph glyph-name="asciitilde" unicode="~" horiz-adv-x="375" 
d="M354 743c-31 -23 -59 -35 -85 -35c-19 0 -46 7 -82 21c-37 13 -64 20 -82 20c-27 0 -55 -14 -84 -41v85c25 22 53 33 84 33c19 0 47 -7 83 -20c36 -14 64 -20 83 -20c27 0 54 13 83 40v-83z" />
    <glyph glyph-name="quotesinglbase" unicode="&#x201a;" horiz-adv-x="208" 
d="M188 83c0 -72 -59 -161 -109 -166l25 83c-46 0 -83 38 -83 83s38 84 83 84s84 -38 84 -84z" />
    <glyph glyph-name="quotedblbase" unicode="&#x201e;" horiz-adv-x="417" 
d="M188 83c0 -72 -59 -161 -109 -166l25 83c-46 0 -83 38 -83 83s38 84 83 84s84 -38 84 -84zM396 83c0 -72 -59 -161 -108 -166l25 83c-47 0 -84 37 -84 83c0 45 38 84 84 84c44 0 83 -39 83 -84z" />
    <glyph glyph-name="ellipsis" unicode="&#x2026;" horiz-adv-x="625" 
d="M188 83c0 -45 -38 -83 -84 -83s-83 38 -83 83c0 47 37 84 83 84s84 -38 84 -84zM396 83c0 -45 -38 -83 -83 -83c-47 0 -84 37 -84 83c0 47 38 84 84 84c45 0 83 -38 83 -84zM604 83c0 -45 -37 -83 -83 -83s-83 37 -83 83c0 47 37 84 83 84s83 -37 83 -84z" />
    <glyph glyph-name="perthousand" unicode="&#x2030;" horiz-adv-x="1193" 
d="M250 500c0 33 -29 63 -62 63c-34 0 -63 -30 -63 -63s29 -62 63 -62c33 0 62 29 62 62zM718 167c0 33 -29 62 -62 62c-34 0 -63 -29 -63 -62c0 -34 30 -63 63 -63s62 29 62 63zM1068 167c0 33 -29 62 -62 62c-34 0 -63 -29 -63 -62c0 -34 30 -63 63 -63s62 29 62 63z
M354 500c0 -90 -76 -167 -166 -167c-91 0 -167 77 -167 167s76 167 167 167c90 0 166 -77 166 -167zM386 -7l-157 55l229 627l156 -57zM822 167c0 -90 -76 -167 -166 -167s-167 77 -167 167c0 92 80 166 167 166c90 0 166 -76 166 -166zM1172 167c0 -90 -76 -167 -166 -167
c-91 0 -167 77 -167 167s77 166 167 166c89 0 166 -77 166 -166z" />
    <glyph glyph-name="OE" unicode="&#x152;" horiz-adv-x="1196" 
d="M504 333c0 67 -60 125 -129 125c-70 0 -129 -57 -129 -125c0 -72 63 -125 129 -125c70 0 129 58 129 125zM508 0v25c-43 -17 -88 -25 -133 -25c-195 0 -354 150 -354 333c0 185 160 334 354 334c45 0 90 -9 133 -25v25h667v-209h-417v-37h250v-175h-250v-38h417v-208
h-667z" />
    <glyph glyph-name="quoteleft" unicode="&#x2018;" horiz-adv-x="208" 
d="M188 500c0 -45 -39 -83 -84 -83s-83 38 -83 83c0 74 58 162 108 167l-25 -84c46 0 84 -37 84 -83z" />
    <glyph glyph-name="quoteright" unicode="&#x2019;" horiz-adv-x="208" 
d="M188 583c0 -73 -59 -162 -109 -166l25 83c-46 0 -83 38 -83 83s38 84 83 84s84 -38 84 -84z" />
    <glyph glyph-name="quotedblleft" unicode="&#x201c;" horiz-adv-x="417" 
d="M188 500c0 -45 -39 -83 -84 -83s-83 38 -83 83c0 74 58 162 108 167l-25 -84c46 0 84 -37 84 -83zM396 500c0 -45 -39 -83 -83 -83c-46 0 -84 38 -84 83c0 73 58 162 108 167l-24 -84c45 0 83 -37 83 -83z" />
    <glyph glyph-name="quotedblright" unicode="&#x201d;" horiz-adv-x="417" 
d="M188 583c0 -73 -59 -162 -109 -166l25 83c-46 0 -83 38 -83 83s38 84 83 84s84 -38 84 -84zM396 583c0 -72 -59 -162 -108 -166l25 83c-47 0 -84 37 -84 83c0 45 38 84 84 84c44 0 83 -39 83 -84z" />
    <glyph glyph-name="bullet" unicode="&#x2022;" horiz-adv-x="292" 
d="M271 333c0 -68 -57 -125 -125 -125s-125 57 -125 125c0 69 57 125 125 125s125 -56 125 -125z" />
    <glyph glyph-name="tilde" unicode="&#x2dc;" horiz-adv-x="375" 
d="M354 743c-31 -23 -59 -35 -85 -35c-19 0 -46 7 -82 21c-37 13 -64 20 -82 20c-27 0 -55 -14 -84 -41v85c25 22 53 33 84 33c19 0 47 -7 83 -20c36 -14 64 -20 83 -20c27 0 54 13 83 40v-83z" />
    <glyph glyph-name="trademark" unicode="&#x2122;" horiz-adv-x="604" 
d="M490 333v79l-55 -79l-55 79v-79h-93v172h-86v-172h-95v172h-85v78h359l55 -78l55 78h93v-250h-93z" />
    <glyph glyph-name="oe" unicode="&#x153;" horiz-adv-x="1196" 
d="M504 333c0 67 -60 125 -129 125c-70 0 -129 -57 -129 -125c0 -72 63 -125 129 -125c70 0 129 58 129 125zM758 458v-37h250v-175h-250v-38h417v-208h-667v25c-43 -17 -88 -25 -133 -25c-195 0 -354 150 -354 333c0 185 160 334 354 334c45 0 90 -9 133 -25v25h750v-209
h-500z" />
    <glyph glyph-name="Ydieresis" unicode="&#x178;" horiz-adv-x="825" 
d="M538 208v-208h-250v208l-146 250h-204v209h366l109 -196l108 196h283zM371 771c0 -34 -29 -63 -63 -63s-62 29 -62 63c0 33 29 62 62 62s63 -29 63 -62zM579 771c0 -34 -29 -63 -62 -63c-34 0 -63 29 -63 63c0 33 29 62 63 62c33 0 62 -29 62 -62z" />
    <glyph glyph-name="nonbreakingspace" unicode="&#xa0;" horiz-adv-x="375" 
 />
    <glyph glyph-name="exclamdown" unicode="&#xa1;" horiz-adv-x="208" 
d="M21 0l17 458h133l17 -458h-167zM188 583c0 -45 -38 -83 -84 -83s-83 38 -83 83c0 47 37 84 83 84s84 -38 84 -84z" />
    <glyph glyph-name="cent" unicode="&#xa2;" horiz-adv-x="667" 
d="M450 0v-83h-167v95c-155 40 -262 171 -262 321c0 151 106 281 262 322v95h167v-83h196v-209h-271c-70 0 -129 -57 -129 -125c0 -72 63 -125 129 -125h271v-208h-196z" />
    <glyph glyph-name="yen" unicode="&#xa5;" horiz-adv-x="825" 
d="M658 417h105v-125h-177l-24 -42h201v-125h-225v-125h-250v125h-225v125h200l-24 42h-176v125h104l-146 250h283l109 -196l108 196h283z" />
    <glyph glyph-name="dieresis" unicode="&#xa8;" horiz-adv-x="375" 
d="M146 771c0 -34 -29 -63 -63 -63s-62 29 -62 63s29 62 62 62c34 0 63 -29 63 -62zM354 771c0 -34 -28 -63 -62 -63s-63 29 -63 63c0 33 29 62 63 62c33 0 62 -29 62 -62z" />
    <glyph glyph-name="copyright" unicode="&#xa9;" horiz-adv-x="608" 
d="M294 208c-76 0 -141 58 -141 125c0 70 67 125 141 125h94v-78h-94c-30 0 -56 -21 -56 -47s26 -46 56 -46h94v-79h-94zM504 333c0 109 -91 200 -200 200s-200 -91 -200 -200s91 -200 200 -200s200 92 200 200zM587 333c0 -156 -127 -283 -283 -283s-283 127 -283 283
s127 284 283 284c154 0 283 -130 283 -284z" />
    <glyph glyph-name="registered" unicode="&#xae;" horiz-adv-x="608" 
d="M335 371c0 13 -6 19 -18 19h-60v-38h60c12 0 18 6 18 19zM363 208c-32 0 -52 14 -106 75v-75h-93v250h178c46 0 87 -39 87 -84c0 -37 -18 -63 -54 -77c4 -7 9 -10 17 -10h53v-79h-82zM504 333c0 109 -91 200 -200 200s-200 -91 -200 -200s91 -200 200 -200
s200 92 200 200zM587 333c0 -156 -127 -283 -283 -283s-283 127 -283 283s127 284 283 284c154 0 283 -130 283 -284z" />
    <glyph glyph-name="degree" unicode="&#xb0;" horiz-adv-x="229" 
d="M158 572c0 24 -21 45 -44 45s-44 -21 -44 -45c0 -23 20 -44 44 -44s44 21 44 44zM208 572c0 -51 -42 -93 -94 -93c-51 0 -93 42 -93 93c0 53 42 95 93 95c52 0 94 -43 94 -95z" />
    <glyph glyph-name="plusminus" unicode="&#xb1;" horiz-adv-x="375" 
d="M21 0v125h333v-125h-333zM250 271v-104h-125v104h-104v125h104v104h125v-104h104v-125h-104z" />
    <glyph glyph-name="acute" unicode="&#xb4;" horiz-adv-x="417" 
d="M21 708v17l292 108l83 -83z" />
    <glyph glyph-name="paragraph" unicode="&#xb6;" 
d="M671 483v-483h-167v483h-83v-483h-167v200c-125 1 -233 108 -233 233c0 124 109 234 233 234h475v-184h-58z" />
    <glyph glyph-name="questiondown" unicode="&#xbf;" horiz-adv-x="625" 
d="M229 0c-112 0 -208 98 -208 211c0 111 97 210 208 210h175c24 0 34 16 34 54h166c0 -75 -16 -118 -63 -165c-42 -43 -90 -64 -145 -64h-125c-17 0 -25 -9 -25 -25c0 -20 8 -29 25 -29h333v-192h-375zM604 583c0 -45 -37 -83 -83 -83s-83 37 -83 83c0 47 37 84 83 84
s83 -37 83 -84z" />
    <glyph glyph-name="Agrave" unicode="&#xc0;" horiz-adv-x="792" 
d="M396 444l-51 -194h102zM513 0l-22 83h-190l-22 -83h-258l120 458h-203v209h658l175 -667h-258zM125 750l83 83l292 -108v-17z" />
    <glyph glyph-name="Aacute" unicode="&#xc1;" horiz-adv-x="792" 
d="M396 444l-51 -194h102zM513 0l-22 83h-190l-22 -83h-258l120 458h-203v209h658l175 -667h-258zM292 708v17l291 108l84 -83z" />
    <glyph glyph-name="Acircumflex" unicode="&#xc2;" horiz-adv-x="792" 
d="M396 444l-51 -194h102zM513 0l-22 83h-190l-22 -83h-258l120 458h-203v209h658l175 -667h-258zM503 708l-107 81l-107 -81h-136l167 125h152l166 -125h-135z" />
    <glyph glyph-name="Atilde" unicode="&#xc3;" horiz-adv-x="792" 
d="M396 444l-51 -194h102zM513 0l-22 83h-190l-22 -83h-258l120 458h-203v209h658l175 -667h-258zM563 743c-31 -23 -60 -35 -86 -35c-18 0 -46 7 -82 21c-36 13 -64 20 -82 20c-26 0 -54 -14 -84 -41v85c25 22 53 33 84 33c19 0 47 -7 83 -20c37 -14 65 -20 83 -20
c27 0 55 13 84 40v-83z" />
    <glyph glyph-name="Adieresis" unicode="&#xc4;" horiz-adv-x="792" 
d="M396 444l-51 -194h102zM513 0l-22 83h-190l-22 -83h-258l120 458h-203v209h658l175 -667h-258zM354 771c0 -34 -28 -63 -62 -63s-63 29 -63 63c0 33 29 62 63 62c33 0 62 -29 62 -62zM563 771c0 -34 -29 -63 -63 -63s-62 29 -62 63c0 33 29 62 62 62s63 -29 63 -62z" />
    <glyph glyph-name="Aring" unicode="&#xc5;" horiz-adv-x="792" 
d="M396 444l-51 -194h102zM425 771c0 15 -14 29 -29 29c-16 0 -29 -14 -29 -29c0 -20 9 -29 29 -29c15 0 29 13 29 29zM513 0l-22 83h-190l-22 -83h-258l120 458h-203v209h658l175 -667h-258zM458 771c0 -34 -28 -63 -62 -63s-63 29 -63 63s29 62 63 62c33 0 62 -29 62 -62z
" />
    <glyph glyph-name="AE" unicode="&#xc6;" horiz-adv-x="1200" 
d="M513 444l-112 -211h112v211zM513 0v83h-191l-43 -83h-258l347 667h811v-209h-416v-37h250v-175h-250v-38h416v-208h-666z" />
    <glyph glyph-name="Egrave" unicode="&#xc8;" horiz-adv-x="708" 
d="M21 0v458h-83v209h750v-209h-417v-37h250v-175h-250v-38h417v-208h-667zM83 750l84 83l291 -108v-17z" />
    <glyph glyph-name="Eacute" unicode="&#xc9;" horiz-adv-x="708" 
d="M21 0v458h-83v209h750v-209h-417v-37h250v-175h-250v-38h417v-208h-667zM250 708v17l292 108l83 -83z" />
    <glyph glyph-name="Ecircumflex" unicode="&#xca;" horiz-adv-x="708" 
d="M21 0v458h-83v209h750v-209h-417v-37h250v-175h-250v-38h417v-208h-667zM461 708l-107 81l-107 -81h-135l166 125h152l167 -125h-136z" />
    <glyph glyph-name="Edieresis" unicode="&#xcb;" horiz-adv-x="708" 
d="M21 0v458h-83v209h750v-209h-417v-37h250v-175h-250v-38h417v-208h-667zM313 771c0 -34 -29 -63 -63 -63s-62 29 -62 63c0 33 29 62 62 62s63 -29 63 -62zM521 771c0 -34 -29 -63 -63 -63s-62 29 -62 63s29 62 62 62c34 0 63 -29 63 -62z" />
    <glyph glyph-name="Igrave" unicode="&#xcc;" horiz-adv-x="292" 
d="M21 0v458h-83v209h333v-667h-250zM-124 750l83 83l291 -108v-17z" />
    <glyph glyph-name="Iacute" unicode="&#xcd;" horiz-adv-x="292" 
d="M21 0v458h-83v209h333v-667h-250zM42 708v17l291 108l84 -83z" />
    <glyph glyph-name="Icircumflex" unicode="&#xce;" horiz-adv-x="292" 
d="M21 0v458h-83v209h333v-667h-250zM253 708l-107 81l-107 -81h-135l166 125h152l166 -125h-135z" />
    <glyph glyph-name="Idieresis" unicode="&#xcf;" horiz-adv-x="292" 
d="M21 0v458h-83v209h333v-667h-250zM104 771c0 -34 -28 -63 -62 -63s-62 29 -62 63c0 33 29 62 62 62s62 -29 62 -62zM313 771c0 -34 -29 -63 -63 -63s-62 29 -62 63c0 33 29 62 62 62s63 -29 63 -62z" />
    <glyph glyph-name="Ntilde" unicode="&#xd1;" 
d="M479 0l-208 267v-267h-250v458h-83v209h333l208 -267v267h250v-667h-250zM542 743c-31 -23 -60 -35 -86 -35c-18 0 -46 7 -82 21c-36 13 -64 20 -82 20c-27 0 -55 -14 -84 -41v85c25 22 53 33 84 33c19 0 47 -7 83 -20c37 -14 65 -20 83 -20c27 0 55 13 84 40v-83z" />
    <glyph glyph-name="Ograve" unicode="&#xd2;" 
d="M504 333c0 67 -60 125 -129 125c-70 0 -129 -57 -129 -125c0 -72 63 -125 129 -125c70 0 129 58 129 125zM729 333c0 -183 -159 -333 -354 -333s-354 150 -354 333c0 185 160 334 354 334s354 -149 354 -334zM104 750l84 83l291 -108v-17z" />
    <glyph glyph-name="Oacute" unicode="&#xd3;" 
d="M504 333c0 67 -60 125 -129 125c-70 0 -129 -57 -129 -125c0 -72 63 -125 129 -125c70 0 129 58 129 125zM729 333c0 -183 -159 -333 -354 -333s-354 150 -354 333c0 185 160 334 354 334s354 -149 354 -334zM271 708v17l292 108l83 -83z" />
    <glyph glyph-name="Ocircumflex" unicode="&#xd4;" 
d="M504 333c0 67 -60 125 -129 125c-70 0 -129 -57 -129 -125c0 -72 63 -125 129 -125c70 0 129 58 129 125zM729 333c0 -183 -159 -333 -354 -333s-354 150 -354 333c0 185 160 334 354 334s354 -149 354 -334zM482 708l-107 81l-107 -81h-136l167 125h152l167 -125h-136z
" />
    <glyph glyph-name="Otilde" unicode="&#xd5;" 
d="M504 333c0 67 -60 125 -129 125c-70 0 -129 -57 -129 -125c0 -72 63 -125 129 -125c70 0 129 58 129 125zM729 333c0 -183 -159 -333 -354 -333s-354 150 -354 333c0 185 160 334 354 334s354 -149 354 -334zM542 743c-31 -23 -60 -35 -86 -35c-18 0 -46 7 -82 21
c-36 13 -64 20 -82 20c-27 0 -55 -14 -84 -41v85c25 22 53 33 84 33c19 0 47 -7 83 -20c37 -14 65 -20 83 -20c27 0 55 13 84 40v-83z" />
    <glyph glyph-name="Odieresis" unicode="&#xd6;" 
d="M504 333c0 67 -60 125 -129 125c-70 0 -129 -57 -129 -125c0 -72 63 -125 129 -125c70 0 129 58 129 125zM729 333c0 -183 -159 -333 -354 -333s-354 150 -354 333c0 185 160 334 354 334s354 -149 354 -334zM333 771c0 -34 -28 -63 -62 -63s-63 29 -63 63s29 62 63 62
c33 0 62 -29 62 -62zM542 771c0 -34 -29 -63 -63 -63s-62 29 -62 63c0 33 29 62 62 62s63 -29 63 -62z" />
    <glyph glyph-name="Oslash" unicode="&#xd8;" 
d="M408 454c-11 3 -22 4 -33 4c-70 0 -129 -57 -129 -125c0 -11 2 -23 5 -35zM504 333c0 12 -2 24 -5 35l-157 -156c12 -2 23 -4 33 -4c70 0 129 58 129 125zM660 530c46 -58 69 -124 69 -197c0 -183 -159 -333 -354 -333c-68 0 -131 18 -191 54l-118 -117l-87 87l111 113
c-46 58 -69 123 -69 196c0 185 160 334 354 334c68 0 131 -19 191 -55l118 119l88 -88z" />
    <glyph glyph-name="Ugrave" unicode="&#xd9;" 
d="M729 333c0 -183 -159 -333 -354 -333s-354 150 -354 333v125h-83v209h308v-334c0 -72 63 -125 129 -125c70 0 129 58 129 125v334h225v-334zM104 750l84 83l291 -108v-17z" />
    <glyph glyph-name="Uacute" unicode="&#xda;" 
d="M729 333c0 -183 -159 -333 -354 -333s-354 150 -354 333v125h-83v209h308v-334c0 -72 63 -125 129 -125c70 0 129 58 129 125v334h225v-334zM271 708v17l292 108l83 -83z" />
    <glyph glyph-name="Ucircumflex" unicode="&#xdb;" 
d="M729 333c0 -183 -159 -333 -354 -333s-354 150 -354 333v125h-83v209h308v-334c0 -72 63 -125 129 -125c70 0 129 58 129 125v334h225v-334zM482 708l-107 81l-107 -81h-136l167 125h152l167 -125h-136z" />
    <glyph glyph-name="Udieresis" unicode="&#xdc;" 
d="M729 333c0 -183 -159 -333 -354 -333s-354 150 -354 333v125h-83v209h308v-334c0 -72 63 -125 129 -125c70 0 129 58 129 125v334h225v-334zM333 771c0 -34 -28 -63 -62 -63s-63 29 -63 63s29 62 63 62c33 0 62 -29 62 -62zM542 771c0 -34 -29 -63 -63 -63s-62 29 -62 63
c0 33 29 62 62 62s63 -29 63 -62z" />
    <glyph glyph-name="agrave" unicode="&#xe0;" horiz-adv-x="792" 
d="M396 444l-51 -194h102zM651 458l120 -458h-258l-22 83h-190l-22 -83h-258l175 667h658v-209h-203zM125 750l83 83l292 -108v-17z" />
    <glyph glyph-name="aacute" unicode="&#xe1;" horiz-adv-x="792" 
d="M396 444l-51 -194h102zM651 458l120 -458h-258l-22 83h-190l-22 -83h-258l175 667h658v-209h-203zM292 708v17l291 108l84 -83z" />
    <glyph glyph-name="acircumflex" unicode="&#xe2;" horiz-adv-x="792" 
d="M396 444l-51 -194h102zM651 458l120 -458h-258l-22 83h-190l-22 -83h-258l175 667h658v-209h-203zM503 708l-107 81l-107 -81h-136l167 125h152l166 -125h-135z" />
    <glyph glyph-name="atilde" unicode="&#xe3;" horiz-adv-x="792" 
d="M396 444l-51 -194h102zM651 458l120 -458h-258l-22 83h-190l-22 -83h-258l175 667h658v-209h-203zM563 743c-31 -23 -60 -35 -86 -35c-18 0 -46 7 -82 21c-36 13 -64 20 -82 20c-26 0 -54 -14 -84 -41v85c25 22 53 33 84 33c19 0 47 -7 83 -20c37 -14 65 -20 83 -20
c27 0 55 13 84 40v-83z" />
    <glyph glyph-name="adieresis" unicode="&#xe4;" horiz-adv-x="792" 
d="M396 444l-51 -194h102zM651 458l120 -458h-258l-22 83h-190l-22 -83h-258l175 667h658v-209h-203zM354 771c0 -34 -28 -63 -62 -63s-63 29 -63 63c0 33 29 62 63 62c33 0 62 -29 62 -62zM563 771c0 -34 -29 -63 -63 -63s-62 29 -62 63c0 33 29 62 62 62s63 -29 63 -62z
" />
    <glyph glyph-name="aring" unicode="&#xe5;" horiz-adv-x="792" 
d="M396 444l-51 -194h102zM425 771c0 15 -14 29 -29 29c-16 0 -29 -14 -29 -29c0 -20 9 -29 29 -29c15 0 29 13 29 29zM651 458l120 -458h-258l-22 83h-190l-22 -83h-258l175 667h658v-209h-203zM458 771c0 -34 -28 -63 -62 -63s-63 29 -63 63s29 62 63 62
c33 0 62 -29 62 -62z" />
    <glyph glyph-name="ae" unicode="&#xe6;" horiz-adv-x="1200" 
d="M513 444l-112 -211h112v211zM763 458v-37h250v-175h-250v-38h416v-208h-666v83h-191l-43 -83h-258l347 667h895v-209h-500z" />
    <glyph glyph-name="egrave" unicode="&#xe8;" horiz-adv-x="708" 
d="M271 458v-37h250v-175h-250v-38h417v-208h-667v667h750v-209h-500zM83 750l84 83l291 -108v-17z" />
    <glyph glyph-name="eacute" unicode="&#xe9;" horiz-adv-x="708" 
d="M271 458v-37h250v-175h-250v-38h417v-208h-667v667h750v-209h-500zM250 708v17l292 108l83 -83z" />
    <glyph glyph-name="ecircumflex" unicode="&#xea;" horiz-adv-x="708" 
d="M271 458v-37h250v-175h-250v-38h417v-208h-667v667h750v-209h-500zM461 708l-107 81l-107 -81h-135l166 125h152l167 -125h-136z" />
    <glyph glyph-name="edieresis" unicode="&#xeb;" horiz-adv-x="708" 
d="M271 458v-37h250v-175h-250v-38h417v-208h-667v667h750v-209h-500zM313 771c0 -34 -29 -63 -63 -63s-62 29 -62 63c0 33 29 62 62 62s63 -29 63 -62zM521 771c0 -34 -29 -63 -63 -63s-62 29 -62 63s29 62 62 62c34 0 63 -29 63 -62z" />
    <glyph glyph-name="igrave" unicode="&#xec;" horiz-adv-x="292" 
d="M271 458v-458h-250v667h333v-209h-83zM-124 750l83 83l291 -108v-17z" />
    <glyph glyph-name="iacute" unicode="&#xed;" horiz-adv-x="292" 
d="M271 458v-458h-250v667h333v-209h-83zM42 708v17l291 108l84 -83z" />
    <glyph glyph-name="icircumflex" unicode="&#xee;" horiz-adv-x="292" 
d="M271 458v-458h-250v667h333v-209h-83zM253 708l-107 81l-107 -81h-135l166 125h152l166 -125h-135z" />
    <glyph glyph-name="idieresis" unicode="&#xef;" horiz-adv-x="292" 
d="M271 458v-458h-250v667h333v-209h-83zM104 771c0 -34 -28 -63 -62 -63s-62 29 -62 63c0 33 29 62 62 62s62 -29 62 -62zM313 771c0 -34 -29 -63 -63 -63s-62 29 -62 63c0 33 29 62 62 62s63 -29 63 -62z" />
    <glyph glyph-name="ntilde" unicode="&#xf1;" 
d="M729 458v-458h-250l-208 267v-267h-250v667h250l208 -267v267h334v-209h-84zM542 743c-31 -23 -60 -35 -86 -35c-18 0 -46 7 -82 21c-36 13 -64 20 -82 20c-27 0 -55 -14 -84 -41v85c25 22 53 33 84 33c19 0 47 -7 83 -20c37 -14 65 -20 83 -20c27 0 55 13 84 40v-83z
" />
    <glyph glyph-name="ograve" unicode="&#xf2;" 
d="M504 333c0 67 -60 125 -129 125c-70 0 -129 -57 -129 -125c0 -72 63 -125 129 -125c70 0 129 58 129 125zM729 333c0 -183 -159 -333 -354 -333s-354 150 -354 333c0 185 160 334 354 334s354 -149 354 -334zM104 750l84 83l291 -108v-17z" />
    <glyph glyph-name="oacute" unicode="&#xf3;" 
d="M504 333c0 67 -60 125 -129 125c-70 0 -129 -57 -129 -125c0 -72 63 -125 129 -125c70 0 129 58 129 125zM729 333c0 -183 -159 -333 -354 -333s-354 150 -354 333c0 185 160 334 354 334s354 -149 354 -334zM271 708v17l292 108l83 -83z" />
    <glyph glyph-name="ocircumflex" unicode="&#xf4;" 
d="M504 333c0 67 -60 125 -129 125c-70 0 -129 -57 -129 -125c0 -72 63 -125 129 -125c70 0 129 58 129 125zM729 333c0 -183 -159 -333 -354 -333s-354 150 -354 333c0 185 160 334 354 334s354 -149 354 -334zM482 708l-107 81l-107 -81h-136l167 125h152l167 -125h-136z
" />
    <glyph glyph-name="otilde" unicode="&#xf5;" 
d="M504 333c0 67 -60 125 -129 125c-70 0 -129 -57 -129 -125c0 -72 63 -125 129 -125c70 0 129 58 129 125zM729 333c0 -183 -159 -333 -354 -333s-354 150 -354 333c0 185 160 334 354 334s354 -149 354 -334zM542 743c-31 -23 -60 -35 -86 -35c-18 0 -46 7 -82 21
c-36 13 -64 20 -82 20c-27 0 -55 -14 -84 -41v85c25 22 53 33 84 33c19 0 47 -7 83 -20c37 -14 65 -20 83 -20c27 0 55 13 84 40v-83z" />
    <glyph glyph-name="odieresis" unicode="&#xf6;" 
d="M504 333c0 67 -60 125 -129 125c-70 0 -129 -57 -129 -125c0 -72 63 -125 129 -125c70 0 129 58 129 125zM729 333c0 -183 -159 -333 -354 -333s-354 150 -354 333c0 185 160 334 354 334s354 -149 354 -334zM333 771c0 -34 -28 -63 -62 -63s-63 29 -63 63s29 62 63 62
c33 0 62 -29 62 -62zM542 771c0 -34 -29 -63 -63 -63s-62 29 -62 63c0 33 29 62 62 62s63 -29 63 -62z" />
    <glyph glyph-name="divide" unicode="&#xf7;" horiz-adv-x="375" 
d="M250 192c0 -34 -29 -63 -62 -63c-34 0 -63 29 -63 63c0 33 29 62 63 62c33 0 62 -29 62 -62zM21 271v125h333v-125h-333zM250 475c0 -33 -29 -62 -62 -62c-34 0 -63 29 -63 62s29 63 63 63c33 0 62 -30 62 -63z" />
    <glyph glyph-name="oslash" unicode="&#xf8;" 
d="M408 454c-11 3 -22 4 -33 4c-70 0 -129 -57 -129 -125c0 -11 2 -23 5 -35zM504 333c0 12 -2 24 -5 35l-157 -156c12 -2 23 -4 33 -4c70 0 129 58 129 125zM660 530c46 -58 69 -124 69 -197c0 -183 -159 -333 -354 -333c-68 0 -131 18 -191 54l-118 -117l-87 87l111 113
c-46 58 -69 123 -69 196c0 185 160 334 354 334c68 0 131 -19 191 -55l118 119l88 -88z" />
    <glyph glyph-name="ugrave" unicode="&#xf9;" 
d="M729 458v-125c0 -183 -159 -333 -354 -333s-354 150 -354 333v334h225v-334c0 -72 63 -125 129 -125c70 0 129 58 129 125v334h309v-209h-84zM104 750l84 83l291 -108v-17z" />
    <glyph glyph-name="uacute" unicode="&#xfa;" 
d="M729 458v-125c0 -183 -159 -333 -354 -333s-354 150 -354 333v334h225v-334c0 -72 63 -125 129 -125c70 0 129 58 129 125v334h309v-209h-84zM271 708v17l292 108l83 -83z" />
    <glyph glyph-name="ucircumflex" unicode="&#xfb;" 
d="M729 458v-125c0 -183 -159 -333 -354 -333s-354 150 -354 333v334h225v-334c0 -72 63 -125 129 -125c70 0 129 58 129 125v334h309v-209h-84zM482 708l-107 81l-107 -81h-136l167 125h152l167 -125h-136z" />
    <glyph glyph-name="udieresis" unicode="&#xfc;" 
d="M729 458v-125c0 -183 -159 -333 -354 -333s-354 150 -354 333v334h225v-334c0 -72 63 -125 129 -125c70 0 129 58 129 125v334h309v-209h-84zM333 771c0 -34 -28 -63 -62 -63s-63 29 -63 63s29 62 63 62c33 0 62 -29 62 -62zM542 771c0 -34 -29 -63 -63 -63
s-62 29 -62 63c0 33 29 62 62 62s63 -29 63 -62z" />
    <glyph glyph-name="ydieresis" unicode="&#xff;" horiz-adv-x="825" 
d="M683 458l-145 -250v-208h-250v208l-267 459h283l109 -196l108 196h367v-209h-205zM371 771c0 -34 -29 -63 -63 -63s-62 29 -62 63c0 33 29 62 62 62s63 -29 63 -62zM579 771c0 -34 -29 -63 -62 -63c-34 0 -63 29 -63 63c0 33 29 62 63 62c33 0 62 -29 62 -62z" />
    <glyph glyph-name="numbersign" unicode="#" horiz-adv-x="666" 
d="M290 438l-19 -105h105l18 105h-104zM624 438h-105l-18 -105h104l-22 -125h-104l-19 -104h-125l19 104h-104l-19 -104h-125l19 104h-104l21 125h104l19 105h-104l22 125h104l19 104h125l-19 -104h104l19 104h125l-19 -104h104z" />
    <glyph glyph-name="exclam" unicode="!" horiz-adv-x="208" 
d="M188 83c0 -45 -38 -83 -84 -83s-83 38 -83 83c0 47 37 84 83 84s84 -38 84 -84zM171 208h-133l-17 459h167z" />
    <glyph glyph-name="quotedbl" unicode="&#x22;" horiz-adv-x="417" 
d="M188 583c0 -73 -59 -162 -109 -166l25 83c-46 0 -83 38 -83 83s38 84 83 84s84 -38 84 -84zM396 583c0 -72 -59 -162 -108 -166l25 83c-47 0 -84 37 -84 83c0 45 38 84 84 84c44 0 83 -39 83 -84z" />
    <glyph glyph-name="percent" unicode="%" horiz-adv-x="843" 
d="M250 500c0 33 -29 63 -62 63c-34 0 -63 -30 -63 -63s29 -62 63 -62c33 0 62 29 62 62zM718 167c0 33 -29 62 -62 62c-34 0 -63 -29 -63 -62c0 -34 30 -63 63 -63s62 29 62 63zM354 500c0 -90 -76 -167 -166 -167c-91 0 -167 77 -167 167s76 167 167 167
c90 0 166 -77 166 -167zM386 -7l-157 55l229 627l156 -57zM822 167c0 -90 -76 -167 -166 -167s-167 77 -167 167c0 92 80 166 167 166c90 0 166 -76 166 -166z" />
    <glyph glyph-name="dollar" unicode="$" horiz-adv-x="708" 
d="M422 458c-11 0 -16 -6 -16 -19c0 -3 1 -5 2 -6l121 -91c50 -38 75 -89 75 -152c0 -87 -72 -166 -166 -186v-87h-167v83h-250v208h248c11 0 16 7 16 21c0 2 -1 4 -2 5l-113 83c-44 32 -66 81 -66 147c0 93 71 177 167 199v87h167v-83h250v-209h-266z" />
    <glyph glyph-name="Scaron" unicode="&#x160;" horiz-adv-x="708" 
d="M422 458c-11 0 -16 -6 -16 -19c0 -3 1 -5 2 -6l121 -91c50 -38 75 -89 75 -152c0 -102 -96 -190 -209 -190h-457v208h331c11 0 16 7 16 21c0 2 -1 4 -2 5l-113 83c-44 32 -66 81 -66 147c0 109 97 203 209 203h375v-209h-266zM430 708h-152l-166 125h135l107 -81l107 81
h136z" />
    <glyph glyph-name="scaron" unicode="&#x161;" horiz-adv-x="708" 
d="M422 458c-11 0 -16 -6 -16 -19c0 -3 1 -5 2 -6l121 -91c50 -38 75 -89 75 -152c0 -102 -96 -190 -209 -190h-374v208h248c11 0 16 7 16 21c0 2 -1 4 -2 5l-113 83c-44 32 -66 81 -66 147c0 109 97 203 209 203h458v-209h-349zM430 708h-152l-166 125h135l107 -81l107 81
h136z" />
    <glyph glyph-name="onequarter" unicode="&#xbc;" horiz-adv-x="749" 
d="M63 333v238h-42l42 96h116v-334h-116zM274 -7l-156 55l228 627l156 -57zM708 54v-61h-117v61h-217l42 229h121l-23 -125h77v167h117v-167h21v-104h-21z" />
    <glyph glyph-name="onehalf" unicode="&#xbd;" horiz-adv-x="791" 
d="M63 333v238h-42l42 96h116v-334h-116zM274 -7l-156 55l228 627l156 -57zM416 0v105c0 56 48 105 104 105h125c8 0 13 4 13 13s-5 14 -13 14h-208v96h229c55 0 104 -49 104 -105s-49 -105 -104 -105h-125c-10 0 -13 -6 -13 -27h242v-96h-354z" />
    <glyph glyph-name="threequarters" unicode="&#xbe;" horiz-adv-x="899" 
d="M354 438c0 -57 -47 -105 -104 -105h-229v96h208c8 0 13 5 13 13c0 10 -5 15 -13 15h-125v87h125c8 0 13 4 13 13s-5 14 -13 14h-208v96h229c58 0 104 -47 104 -105c0 -24 -7 -44 -21 -62c14 -18 21 -39 21 -62zM416 -7l-157 55l228 627l157 -57zM857 63v-63h-116v63h-217
l42 229h121l-23 -125h77v166h116v-166h21v-104h-21z" />
    <glyph glyph-name="multiply" unicode="&#xd7;" horiz-adv-x="365" 
d="M256 172l-73 73l-74 -73l-88 88l73 73l-73 74l88 88l74 -73l73 73l88 -88l-73 -74l73 -73z" />
    <glyph glyph-name="Yacute" unicode="&#xdd;" horiz-adv-x="825" 
d="M538 208v-208h-250v208l-146 250h-204v209h366l109 -196l108 196h283zM308 708v17l292 108l83 -83z" />
    <glyph glyph-name="yacute" unicode="&#xfd;" horiz-adv-x="825" 
d="M683 458l-145 -250v-208h-250v208l-267 459h283l109 -196l108 196h367v-209h-205zM308 708v17l292 108l83 -83z" />
  </font>
</defs>
</svg>
