<?xml version="1.0" encoding="utf-8"?>
<!-- Generator: Adobe Illustrator 19.2.1, SVG Export Plug-In . SVG Version: 6.00 Build 0)  -->
<svg version="1.1" id="Layer_1" xmlns="http://www.w3.org/2000/svg" xmlns:xlink="http://www.w3.org/1999/xlink" x="0px" y="0px"
	 viewBox="0 0 125 78" style="enable-background:new 0 0 125 78;" xml:space="preserve">
<style type="text/css">
	.st0{clip-path:url(#SVGID_2_);}
	.st1{fill:#1D3E50;stroke:#6CCBDB;stroke-miterlimit:10;}
	.st2{fill:#6CCBDB;}
</style>
<g>
	<defs>
		<rect id="SVGID_1_" x="-0.5" width="125.5" height="78.5"/>
	</defs>
	<clipPath id="SVGID_2_">
		<use xlink:href="#SVGID_1_"  style="overflow:visible;"/>
	</clipPath>
	<g class="st0">
		<rect x="-6.2" y="19" transform="matrix(0.8584 0.513 -0.513 0.8584 26.3447 -34.4293)" class="st1" width="163.5" height="23"/>
		<g>
			<path class="st2" d="M49,21.4c-2.4-1.4-3-4.3-1.5-6.7c1.5-2.5,4.2-3.3,6.6-1.9c2.4,1.4,3,4.3,1.5,6.8C54.1,22,51.4,22.8,49,21.4z
				 M53,14.7c-1.1-0.7-2.4-0.2-3.3,1.3c-0.9,1.4-0.7,2.8,0.4,3.5c1.1,0.7,2.5,0.2,3.3-1.3C54.3,16.7,54.1,15.3,53,14.7z"/>
			<path class="st2" d="M57.8,22.7l-1.6,2.8L54,24.2l5-8.3l3.8,2.2c1.8,1.1,2.4,2.8,1.3,4.7c-0.8,1.3-1.9,1.8-3.2,1.5l0.2,4.2
				L58.7,27l-0.1-3.8L57.8,22.7z M58.9,21l1.4,0.8c0.8,0.5,1.4,0.3,1.7-0.3c0.4-0.6,0.2-1.2-0.5-1.7L60.1,19L58.9,21z"/>
			<path class="st2" d="M64,30.2l-2.2-1.3l5-8.3l2.2,1.3L64,30.2z"/>
			<path class="st2" d="M71.6,31.8l0.5-0.8l-1.2-0.7l1-1.7l3.1,1.9l-2.2,3.7c-1.3,0.3-2.6,0-3.7-0.7c-2.6-1.6-3.2-4.3-1.7-6.8
				c1.6-2.6,4.4-3.3,7.1-1.7c0.9,0.6,1.7,1.3,2,2.1l-1.3,2.1c-0.4-0.8-0.9-1.6-2-2.2c-1.3-0.8-2.8-0.5-3.7,1
				c-0.8,1.4-0.5,2.9,0.7,3.6C70.8,31.8,71.2,31.9,71.6,31.8z"/>
			<path class="st2" d="M75.6,37.1l-2.2-1.3l5-8.3l2.2,1.3L75.6,37.1z"/>
			<path class="st2" d="M84.2,42.2l-1.8-1.1l-0.6-7l-2.9,4.9l-2.1-1.3l5-8.3l2,1.2l0.5,6.5l2.7-4.6l2.1,1.3L84.2,42.2z"/>
			<path class="st2" d="M95.3,37.5l-1.8,10.2l-2.2-1.3l0.4-2l-3-1.8l-1.6,1.3l-2.2-1.3l8.2-6.4L95.3,37.5z M90.3,41.3l1.7,1l0.5-2.9
				L90.3,41.3z"/>
			<path class="st2" d="M99.2,39.9l2.2,1.3l-3.9,6.5l3.7,2.2l-1.1,1.9l-5.9-3.5L99.2,39.9z"/>
		</g>
	</g>
</g>
</svg>
