<?xml version="1.0" encoding="utf-8"?>
<!-- Generator: Adobe Illustrator 19.2.1, SVG Export Plug-In . SVG Version: 6.00 Build 0)  -->
<svg version="1.1" id="Layer_1" xmlns="http://www.w3.org/2000/svg" xmlns:xlink="http://www.w3.org/1999/xlink" x="0px" y="0px"
	 viewBox="0 0 300 300" style="enable-background:new 0 0 300 300;" xml:space="preserve">
<style type="text/css">
	.st0{fill:#DBDBDB;}
</style>
<g id="TxfuvD_1_">
	<g>
		<path class="st0" d="M138.9,29.8c1.2-0.1,2.4-0.2,3.6-0.3c59.7-5,111.4,33.5,131,88.7c5.9,16.5,7.4,37.5,4.6,54.6
			c-8.6,53.2-38.8,88-89.6,105.2c-35.7,12.1-79,3.6-109.8-17.8c-23-16-38.5-39.8-47.8-66c-8-22.6-6.9-44.6-2-67.6
			c3.2-15.2,9.3-29.7,18.5-42.4c16.7-23,41.1-40.4,67.9-49.6C122.8,31.9,130.9,30.6,138.9,29.8z M34.4,156
			c0,64.8,52.6,117.8,117.3,117.9c65.1,0.2,118.2-52.7,118.2-117.5S217.2,38.6,152.7,38.5C87.6,38.3,34.4,91.1,34.4,156z"/>
		<path class="st0" d="M152.2,269.2c-62.6,0.1-113-50.3-113.1-112.9C39,93.5,89.4,43.1,152.4,43.1c62.4,0,112.8,50.5,112.8,113.2
			C265.3,218.8,214.8,269.2,152.2,269.2z M256,155.9C255.7,98.6,208.8,52,151.8,52.3c-57.1,0.4-103.5,47-103.5,103.8
			c0.1,57.3,46.9,104,103.9,103.9C209.5,259.8,256.2,213,256,155.9z"/>
		<path class="st0" d="M215.3,156.1c0,35.2-28,63.3-63.3,63.3c-35.2,0-63.1-28.1-63.1-63.4c0-35.1,28.2-63,63.6-63
			C187.3,93,215.3,121.2,215.3,156.1z M152.8,139.3c-9.2-0.3-17.2,7.2-17.4,16.3c-0.2,9,7,16.9,15.9,17.3c9.2,0.4,17.4-7,17.7-16
			C169.3,147.7,161.9,139.6,152.8,139.3z"/>
		<path class="st0" d="M153,66.2c8.7-0.4,17.8,1.8,27,4.4c4.5,1.3,6.5,3,3.1,7.4c-0.5,0.6-0.9,1.3-1.1,2c-1.3,4.6-3.9,4.8-8.2,3.5
			c-12.1-3.7-24.7-4.8-37.1-1.8c-5.7,1.4-7.8,0.1-9.6-5c-2.5-6.9-2.8-6.8,4.4-8.3C138.3,67,145.1,65.9,153,66.2z"/>
		<path class="st0" d="M107.4,92.8c0.3,1.9-0.8,2.5-1.7,3.2c-7.7,6-14.1,13.1-19,21.4c-1.3,2.2-2.3,2.5-4.4,0.9
			c-10.4-7.9-10.1-4.8-3-15.3c4.2-6.2,9.7-11.4,15.3-16.5c3.7-3.3,6.4-4.2,9.1,0.9C104.7,89.5,106.3,91.3,107.4,92.8z"/>
		<path class="st0" d="M219.5,119.7c-2.1-0.1-2.5-1.5-3.2-2.6c-4-6.7-9-12.5-14.7-17.7c-2.4-2.2-2.9-3.5,0-5.7
			c9.4-7.2,6.1-8.3,15,0.6c4.7,4.6,8.3,10.1,11.9,15.6c2.2,3.3,2.3,5.4-2,6.7C224,117.3,221.7,118.7,219.5,119.7z"/>
	</g>
</g>
</svg>
