<?xml version="1.0" encoding="utf-8"?>
<!-- Generator: Adobe Illustrator 19.2.1, SVG Export Plug-In . SVG Version: 6.00 Build 0)  -->
<svg version="1.1" id="Layer_1" xmlns="http://www.w3.org/2000/svg" xmlns:xlink="http://www.w3.org/1999/xlink" x="0px" y="0px"
	 viewBox="0 0 300 300" style="enable-background:new 0 0 300 300;" xml:space="preserve">
<style type="text/css">
	.st0{fill:#DBDBDB;}
</style>
<g id="COJtG8_1_">
	<g>
		<path class="st0" d="M148.4,14.5c2.8-0.6,4.5,1.7,7.7,5.1c18.1,19.6,29.3,41.9,28.1,69.4c-0.7,17.6,0.6,35.2-1.3,52.7
			c-0.8,7.7,2.7,11.7,9,16.1c0-3,0-5.1,0-7.1c0-16.9,0-33.9,0-50.8c0-8.3,2.2-16,7-23c3.2-4.8,5.9-4.4,9.2-0.1
			c5.3,6.8,8.1,14.5,8.1,23.1c0,25.1,0,50.2,0,75.2c0,9.1-1,18.4,3.2,27.1c0.8,1.6,0.6,3.8,0.7,5.7c0.2,5.8-1.3,11-3.4,16.5
			c-1.3,3.4-2,5.5-6.4,5.5c4.6,5.4,6.4,11.1,7.1,17.1c0.3,2.7,0.1,4.5-3.5,4.4c-5.3-0.2-10.7-0.2-16.1,0c-3,0.1-3.6-1.2-3.2-3.9
			c1.1-6.4,3.1-12.3,7.2-17.3c-2.8-2.3-7.1,1.5-8.6-2.8c-2.1-6.3-7.1-2.5-10.6-2.9c-3.9-0.4-2.5,3.4-2.3,5.3
			c0.7,5.4-1.8,6.5-6.5,6.2c-5.3-0.4-10.6-0.1-16.5-0.1c2.3,4.7,3.8,8.9,4.6,13.3c0.7,4,0.3,6.6-4.9,6.1c-4.7-0.4-9.4-0.3-14.1,0
			c-3.3,0.2-4.1-1.1-3.5-4.1c1-5,2.3-9.9,5.5-15.2c-7.1,0-13.3-0.4-19.4,0.1c-5.5,0.4-8-1-7.1-6.9c0.2-1.5,1.2-4.6-1.8-4.6
			c-3.6,0-9.6-2.2-10.5,1.2c-1.3,5.1-4.7,3-7.7,4.5c3.6,4.1,5.4,8.8,6.5,13.8c1.1,4.9,1.1,8.5-5.8,7.5c-4-0.6-8.2-0.4-12.2,0
			c-4.6,0.4-4.8-1.7-4.1-5.3c1.1-5.9,3.5-11.3,6.8-15.9c-2.2-2.3-7.2,1.7-7.1-3.5c0.2-5.8-5.4-10-5.7-15.9c-0.2-5,1.9-8.1,3.5-12.5
			c1.5-4.1,2.1-8.6,2.1-13c-0.2-28.5-0.1-57-0.1-85.5c0-9.1,3-17.1,9-24.1c2.8-3.2,4.9-3.2,7.5,0.1c5.3,6.9,7.7,14.8,7.7,23.3
			c0.1,17.6,0,35.1,0.1,52.7c0,1.7-1,3.8,0.9,5.1c6.8-4,8.6-9.6,7.9-17.3c-1.7-17.3-0.5-34.7-1.1-52c-0.8-22.8,7.2-42.3,21-59.8
			c2.9-3.7,5.2-8.7,9.1-11.5C146.3,15.3,147.4,14.7,148.4,14.5z M122.3,154c-13.2,13.1-25.1,25.3-33,40.8c-1,1.9-1.6,4-2.1,6
			c-2.7,10.2,1.5,15.9,12,15.9c33.5,0.1,66.9,0.1,100.4,0c10.9,0,15.4-5.9,11.9-16.4c-6.3-18.9-20.7-31.9-34.8-46.4
			c-2.4,18.4-4.6,35.3-6.8,52.3c-0.8-0.1-1.6-0.2-2.4-0.3c0-2.3,0-4.6,0-6.9c0-30.2-0.1-60.5,0-90.7c0-11.8-5.4-20.4-14.6-27.1
			c-2.5-1.8-4.3-1.9-6.8-0.1c-9.2,6.7-14.7,15.2-14.7,27c0.1,30.4,0,60.9,0,91.3c0,2.2-0.2,4.4-0.3,6.6c-0.7,0-1.4,0.1-2.1,0.1
			C126.8,189.3,124.6,172.4,122.3,154z"/>
		<path class="st0" d="M130.1,267.4c0,5.5,0,11.1,0,16.6c0,2.3-0.4,4.6-3.2,4.5c-2.8,0-3.2-2.3-3.2-4.6c0-11.5,0-23,0-34.5
			c0-2.1,0.4-4,2.9-4.2c2.9-0.2,3.5,1.9,3.5,4.2C130.1,255.5,130.1,261.5,130.1,267.4z"/>
		<path class="st0" d="M176.4,267.4c0,5.5,0,11.1,0,16.6c0,2.3-0.4,4.5-3.2,4.5s-3.1-2.3-3.1-4.6c0-11.3,0-22.6,0-33.9
			c0-2.2,0.1-4.6,2.9-4.8c3.3-0.2,3.4,2.4,3.4,4.9C176.4,255.9,176.4,261.7,176.4,267.4z"/>
		<path class="st0" d="M90.4,269.1c0-2.5,0-5.1,0-7.6c0-2,1-3.3,3-3.4s3.2,1.2,3.2,3.1c0.1,5.5,0.1,11,0,16.5c0,2-1.2,3.2-3.3,3.1
			c-2-0.1-2.9-1.5-2.9-3.5C90.3,274.7,90.4,271.9,90.4,269.1z"/>
		<path class="st0" d="M203.6,269.2c0-2.5,0-5.1,0-7.6c0-2,1-3.3,3-3.4s3.2,1.2,3.2,3.1c0.1,5.5,0.1,11,0,16.5c0,2-1.2,3.2-3.2,3.1
			s-2.9-1.5-3-3.4C203.6,274.7,203.6,271.9,203.6,269.2z"/>
		<path class="st0" d="M150.2,102.3c5.2,0,12.4,5.3,14,9.9c0.7,2-0.4,2.8-1.4,3.8c-1.5,1.6-2.4,0.4-3.6-0.6
			c-8.9-7.3-9.1-7.3-17.4-0.1c-1.4,1.3-2.5,1.4-3.9,0.3c-1.1-0.9-2.5-1.3-1.7-3.5C137.8,107.6,145.2,102.3,150.2,102.3z"/>
		<path class="st0" d="M193,198.8c2.1,0,4.2,0.1,6.4,0c2.9-0.1,2.8,1.8,2.8,3.8s0.2,3.9-2.8,3.8c-3.4-0.1-6.8-0.1-10.2,0
			c-3,0.1-5.2,0.1-5.1-4.2c0.1-4.2,2.7-3.4,5.1-3.5C190.5,198.7,191.8,198.8,193,198.8L193,198.8z"/>
	</g>
</g>
</svg>
