<?xml version="1.0" encoding="utf-8"?>
<!-- Generator: Adobe Illustrator 19.2.1, SVG Export Plug-In . SVG Version: 6.00 Build 0)  -->
<svg version="1.1" id="Layer_1" xmlns="http://www.w3.org/2000/svg" xmlns:xlink="http://www.w3.org/1999/xlink" x="0px" y="0px"
	 viewBox="0 0 300 300" style="enable-background:new 0 0 300 300;" xml:space="preserve">
<style type="text/css">
	.st0{fill:#DBDBDB;}
</style>
<g id="v0sz9A_1_">
	<g>
		<path class="st0" d="M145.4,7.2c4.3,0,8.6,0,12.9,0c2.3,0.2,4.7,0.4,7,0.6c11.4,1.1,22.4,3.8,32.9,8.4c24,10.5,41.3,27.7,51,52.1
			c3.6,8.9,5.6,18.2,6.5,27.8c0.6,6,0.8,12.1,0.2,18.1c-0.8,8.6-2.4,17.1-4.6,25.4c-4.3,16.5-10.3,32.4-17.3,48
			c-10.5,23.5-22.9,46-37.8,67.1c-7.3,10.3-15,20.2-24.5,28.6c-5.2,4.7-10.8,8.9-17.8,10.4c-1.4,0-2.9,0-4.3,0
			c-1.4-0.4-2.8-0.7-4.1-1.2c-4.4-1.8-8.2-4.5-11.8-7.5c-9-7.6-16.4-16.6-23.3-26c-14-19-25.6-39.4-35.9-60.6
			c-8.8-18.4-16.5-37.2-21.8-57c-2.7-10-4.8-20.2-5.3-30.6c-0.4-9.8,0.5-19.5,2.8-29c4.1-17.5,12.2-32.7,25-45.4
			c17-16.6,37.6-25.3,60.8-28.3C139.2,7.7,142.3,7.5,145.4,7.2z M77.9,145.8c-0.3,0-0.8,0-1.3,0.1c-0.6,0.1-1.1,0.1-1.6,0.3
			c-1.7,0.4-2.3,1.2-2.5,2.9c-0.1,0.6-0.1,1.3,0,1.9c0.2,3.3,1.2,6.5,2.6,9.5c7.4,16.8,18.8,30.3,34.1,40.5
			c6.9,4.6,14.2,8.3,22.3,10.3c1.4,0.3,2.8,0.6,4.2,0.6c1.8,0,2.4-0.5,2.6-2.3c0.5-3.3-0.1-6.5-0.9-9.7c-6-24.3-20.8-41-43.8-50.6
			C88.5,147.4,83.4,146,77.9,145.8z M231.3,150.7c0-0.4,0-0.7,0-1.1c-0.1-2.2-0.9-3.2-3.1-3.5c-1.1-0.2-2.3-0.3-3.4-0.2
			c-2.9,0.2-5.7,0.7-8.4,1.5c-26.1,8.4-42.9,25.6-49.8,52.2c-0.9,3.3-1.5,6.7-1,10.1c0.2,1.7,0.8,2.2,2.5,2.3c0.4,0,0.9,0,1.3-0.1
			c4-0.5,7.8-1.7,11.4-3.3c13.7-5.9,25.2-14.7,34.6-26.3c6-7.4,11.1-15.3,14.4-24.3C230.6,155.6,231.3,153.2,231.3,150.7z"/>
	</g>
</g>
</svg>
