<?xml version="1.0" encoding="utf-8"?>
<!-- Generator: Adobe Illustrator 19.2.1, SVG Export Plug-In . SVG Version: 6.00 Build 0)  -->
<svg version="1.1" id="Layer_1" xmlns="http://www.w3.org/2000/svg" xmlns:xlink="http://www.w3.org/1999/xlink" x="0px" y="0px"
	 viewBox="0 0 300 300" style="enable-background:new 0 0 300 300;" xml:space="preserve">
<style type="text/css">
	.st0{fill:#DBDBDB;}
</style>
<g id="EIGDf6_1_">
	<g>
		<path class="st0" d="M23.6,141.4c-0.4-1-0.7-1.9-0.7-2.9c-0.2-10.3,13.3-18.8,23-19.9c20.3-2.5,26.5-14.8,30.5-33.2
			C80,68.7,85.7,49,98.1,36.7c5.9-5.9,14.5-9.7,22.7-6.3c8.6,3.6,17.8,5.9,27.2,5.2c8.6-0.6,17-6.5,25.2-6.3
			c14.2,0.3,23.7,20,28.1,31.5c5.3,13.9,9.6,28,12.9,42.5c1.4,6.1,4.2,9.1,10.7,10.5c11.4,2.4,24.8,6,33.6,14.1
			c3.5,3.3,8.4,10,4.9,14.8c-1.5,2-7.4,4.8-9.7,6.4c-4.1,2.9-8.6,5.2-13.5,6.5c-5.1,1.4-5.8,4.2-5.9,8.7c-0.3,9.6-3.5,18.8-11,24.6
			c-7.6,5.9-10.8,13.8-14.5,21.8c-10.8,23.3-26.1,48.3-51.7,57c-28.8,9.8-54.3-12-68.6-35.5c-6.1-10.1-11.3-20.6-16-31.4
			c-1.4-3.1-2.7-5.8-5.8-8c-9.9-7.1-14.9-17.2-15.2-29.4c-0.1-4.5-1.5-6.6-5.8-7.8C39.8,154.1,26.7,148.4,23.6,141.4z M129.9,249.2
			c13.2,4.9,24.3,3.6,34.2-4.7c18.3-15.4,26.9-36.8,35.8-58c1.5-3.5-0.5-4.6-3-5.4c-14.6-4.5-33.1-1.8-41.3,10.3
			c-9.7,14.2-10.6,13.6,4.2,21.3c-2.9,2.9-6.4,1.9-9.5,1.9c-5.6-0.1-11.1,0.5-16.6,1.6c-2.5,0.5-5.1,1.3-5.4,4.2
			c-0.4,4,3.4,4.2,5.7,4.7c5.4,1.1,11,1.6,16.6,2.2c2.2,0.3,4.6,0.3,5.1,3c0.5,2.6-1.8,3.6-3.6,4.8
			C145.1,239.8,136.8,242.2,129.9,249.2z"/>
	</g>
</g>
</svg>
