<?xml version="1.0" encoding="utf-8"?>
<!-- Generator: Adobe Illustrator 19.2.1, SVG Export Plug-In . SVG Version: 6.00 Build 0)  -->
<svg version="1.1" id="Layer_1" xmlns="http://www.w3.org/2000/svg" xmlns:xlink="http://www.w3.org/1999/xlink" x="0px" y="0px"
	 viewBox="0 0 300 300" style="enable-background:new 0 0 300 300;" xml:space="preserve">
<style type="text/css">
	.st0{fill:#DBDBDB;}
</style>
<g id="b5DTgn_1_">
	<g>
		<path class="st0" d="M35.8,125.1c-1-6-1.3-12.1,0-16.9c3.3-12.3,8.1-23.8,17.2-33.1c2.3-2.3,4.1-4.9,5.5-7.8
			c5.4-10.9,12.8-20,24-25.1c3.3-1.5,4.7-3.3,4.1-6.7c-1.3-7,2.9-10,8.6-12.3c12-4.9,25.3-6.8,38.2-5.9c10.5,0.7,24.9,2.5,34.5,7.1
			c3.7,1.8,6.7,3.8,5.7,8.6c-0.7,3.7,0.9,5.8,4.2,7.6C188.4,46.2,196,55,202,65.2c1.3,2.2,2.3,4.7,4.5,6.4
			c16.1,12.5,20.8,29.6,18.9,48.9c-1.8,17.8-8.6,33.1-25.8,41.6c-1,0.5-2.1,1.4-2.6,2.3c-6.1,10.6-12.1,21.3-18.2,32
			c-1,1.7-0.9,3,0.8,4.1c1.4,0.9,2.8,3.5,4.5,1.6c2.4-2.6,3.3-0.4,4.8,0.7c1.9,1.5,1.5,3,0.1,4.5c-1.2,1.3-1.6,2.7-0.4,4.3
			c1.5,2.1,3.2,0.8,4.9,0.6c2.4-0.2,2.2-1.9,2.2-3.5c0-5.2-0.1-10.5,0-15.7c0.2-6.4,5-11.2,11.2-11.2c10.7,0,21.4,0.1,32-0.1
			c3.8-0.1,5.3,0.8,5.1,4.9c-0.3,8,0.1,16.1-0.2,24.2c-0.2,4.2,1.4,5,5.2,5c3.7,0,4.9-1,4.7-4.8c-0.3-8.5-0.2-16.9,0-25.4
			c0-1.8-1.5-5,2.3-5c2.7,0,6.1-1.4,7.4,3c1.1,3.7,2.4,7.1,2.3,11.1c-0.2,9.3-0.1,18.5-0.1,27.8c0,12.9,0.1,25.8,0,38.7
			c-0.1,10.1-2.5,12.4-12.1,12.4c-14.7,0-29.4-0.1-44.1,0.1c-3.1,0-5.1-1.1-7.3-3.2c-4.2-4.1-6.1-8.6-5.5-14.4
			c0.4-4.2-0.1-8.5,0.1-12.7c0.2-3.5-0.6-5.1-4.6-4.9c-3.5,0.2-6,0.3-5.2,4.8s-1.5,5.6-5.5,5c-3.2-0.4-5.2,0.3-6.8,3.9
			c-9.7,22.9-29.6,34.4-54.6,32.2c-21.9-2-40.8-19.1-45.8-42c-2.4-10.9,0.2-22.2-1.2-33.1c-1.8-14.1,2.1-24,16.2-28.6
			c0.6-0.2,1-0.7,1.5-0.9c4.5-2,2-5.2,0.9-7.6c-1.7-3.8-3.6-0.1-5.1,0.5c-2.9,1.3-5.8,3-8.3,4.9c-4.2,3.4-6,2-8-2.6
			c-1.7-3.8-1.9-8.9-6.8-10.7C53,160.5,45.3,151.8,40.7,142C38.9,137.6,36.9,131.4,35.8,125.1z M109.6,115.8
			c-0.1-13.4-5-25.2-13-32.6c-10.8-10-25.6-10.1-36.5-0.3c-17.7,15.9-17.7,47.8-0.1,63.7c10.9,9.8,25.7,9.8,36.5-0.1
			C105.8,137.9,109.1,126.8,109.6,115.8z M213.6,115.9c0-13.2-4.8-25-12.9-32.5c-11-10.2-25.9-10.3-36.9-0.2
			c-17.3,15.9-17.3,47.4,0,63.3c11,10.1,26.1,10,36.9-0.2C209.8,137.8,213,126.8,213.6,115.9z M97.5,235.5
			c-0.1,13.6,8.1,25.3,19.9,29.2c1.8,0.6,4.4,2.6,5.3-0.7c0.6-2.3,0.7-4.7-2.7-6.2c-11.7-5.3-15.5-13.2-13.1-26.3
			c0.8-4.3-2.3-6.5-4.7-7.4c-3.1-1.1-2.6,3.1-3.4,4.9C97.9,231.4,97.8,234.1,97.5,235.5z M130.7,265.9c21.1-2.4,32.6-25.2,21.8-43.2
			c-4.1,2.1-5.3,4.6-3.8,9.6c3.3,10.6-2.8,22.1-13.5,25.7C130.7,259.4,128.8,261.3,130.7,265.9z M127.2,207.3
			c-6.9,0.4-13.1,2.3-18.5,6.6c-1.1,0.9-4,1.9-1.5,4c1.7,1.4,2.7,5.6,6,3.1c9-6.7,18-7.2,27.4-1.1c3.3,2.1,4.3-1.2,5.7-2.7
			c2.1-2.2-0.5-3.1-1.8-4.1C139.5,209.3,133.5,207.7,127.2,207.3z M127.9,224.3c-3.7-0.1-9.3,2.4-9.5,4c-0.2,1.1,7.1,8.3,8.4,8.2
			c1.1-0.1,8.7-7.5,8.3-8.4C133.5,224.9,130.2,225,127.9,224.3z M139.6,235.1c-3.2,3.1-5.6,5.4-8.1,7.7c-1.8,1.6-2.1,4-0.8,5.3
			c1.5,1.4,3.3-0.6,4.6-1.7C138.3,243.8,139.9,240.5,139.6,235.1z M122.5,248.1c0.3-4.9,0-5.4-7.6-11.1
			C115.4,243.6,116.7,245.5,122.5,248.1z"/>
		<path class="st0" d="M99.9,114.4c0,9.1-2.3,16.7-7.7,23.1c-7.9,9.2-19.7,9.3-27.8,0.4c-10.8-11.9-10.7-34.4,0.1-46.2
			c8-8.7,19.5-8.8,27.4,0.1C97.8,98.5,100.1,106.4,99.9,114.4z"/>
		<path class="st0" d="M203.9,111.4c0.1,11.9-2.1,19.5-7.5,26c-8,9.5-20.1,9.6-28.2,0.3c-10.5-11.9-10.4-34,0.2-45.7
			c8.1-9,19.8-8.9,27.9,0.2C201.2,97.8,203.9,105.8,203.9,111.4z"/>
	</g>
</g>
</svg>
