<?xml version="1.0" encoding="utf-8"?>
<!-- Generator: Adobe Illustrator 19.2.1, SVG Export Plug-In . SVG Version: 6.00 Build 0)  -->
<svg version="1.1" id="Layer_1" xmlns="http://www.w3.org/2000/svg" xmlns:xlink="http://www.w3.org/1999/xlink" x="0px" y="0px"
	 viewBox="0 0 300 300" style="enable-background:new 0 0 300 300;" xml:space="preserve">
<style type="text/css">
	.st0{fill:#DBDBDB;}
</style>
<g id="x2Fv4M_1_">
	<g>
		<path class="st0" d="M162.9,286.5c-5.1,0-10.2,0-15.2,0c0-56.5,0-112.9,0-169.4c0-28.6,0.1-57.1-0.1-85.7c0-4.3,1.3-5.9,5.5-6.3
			c3.3-0.3,6.8,0.5,9.8-1.6c2.5,0,5.1,0,7.6,0c10.3,4.4,20.6,8.7,30.8,13.2c2.1,0.9,4.6,1.3,5.7,3.7c7,14.9,17.2,28.2,21.6,44.3
			c3.7,13.4,7.5,26.9,10.5,40.4c1.5,6.7,4.3,10.5,11.4,10.2c0,1.3,0,2.5,0,3.8c-4.3,12.6-5.9,25.8-8.5,38.8
			c-1.1,5.5-2.9,7.9-8.4,6.9c-4.4-0.8-6.2,1-7.2,5.4c-5.3,24.1-11.1,48.2-16.4,72.3c-0.8,3.8-2.6,5.7-6.1,7.1
			C190.2,275.1,176.6,280.8,162.9,286.5z M168.2,141.7c4.2,1.6,6.7-1,8.3-5.6c1-2.8,3.3-5.6,6.1-6.1c8.3-1.3,7-7.1,7.1-12.7
			c0-3.2-1.1-3.9-4.1-3.3c-11.8,2.4-19.7,9.1-23.7,20.4C159.4,141.5,159.7,141.7,168.2,141.7z M222,83.5c-0.3-0.9-0.5-1.5-0.8-2.1
			c-5-11.2-10.1-22.3-15.1-33.5c-0.8-1.8-2-3.1-3.9-3.9c-9.5-4.2-18.9-8.4-28.3-12.6c-1.5-0.6-3.2-1.7-4.5,0.4
			c-1.6,2.8,1.2,3.2,2.6,3.9c7.6,4.1,15.3,8.2,23.1,11.9c3.5,1.7,5.6,4.1,7.2,7.5c4.4,9.8,9,19.5,13.6,29.3c0.6,1.3,0.8,3.8,3.3,2.5
			C220.6,86.2,222.4,85.3,222,83.5z M168.1,146.7c-8.2,0-8.4,0.3-5.7,7.2c3.8,9.7,10.7,16.1,21,18.4c2,0.4,5.8,3.1,5.9-0.9
			c0.1-3.6,3.7-9.1-2.9-11.2c-4.4-1.4-8.4-3.8-10-8.2C174.8,147.3,172,145.8,168.1,146.7z M193.8,172.7c12.3-1.2,22.2-9.6,25-21.6
			c0.5-2,3.7-6.2-0.9-6.4c-3.5-0.2-9.5-4.2-11.1,3.6c-0.8,4-2.9,8.3-6.7,9.5C191.7,160.4,192.9,166.3,193.8,172.7z M190.7,132.6
			c-6.2-0.5-10.8,3.4-11.2,9.6c-0.4,5.2,4.1,11.2,8.7,11.6c7.6,0.8,13.4-3.3,14.1-9.9C203,137.4,198.7,133.3,190.7,132.6z
			 M193.4,121.2c-0.8,3.8,0,7.2,5.4,8.7c2,0.5,4.5,2.5,5.1,4.3c2.1,6.2,6.9,4.7,11.4,5.1c4.3,0.3,4.5-1.7,3.4-4.8
			c-3.3-9-9.2-15.4-18.2-18.8C193.6,113.1,193.4,113.3,193.4,121.2z M166.8,208.2c-0.6-2.2-1.9-4.2-4.6-4.2c-2.3,0-4,1.6-4.2,3.9
			c-0.2,2.7,1.5,4.5,4.1,4.7C164.8,212.9,166.1,210.9,166.8,208.2z"/>
		<path class="st0" d="M145.1,23.5c-5,3.5-11,2.2-16.4,3.5c-6.6,1.6-12,4.2-16.7,9.4C97.8,52,84.7,68.2,80.8,89.8
			c-2.1,11.8-2.1,23.6-1.6,35.4c0.2,3.9,1.9,5.4,6,5.3c10.6-0.3,21.2-0.3,31.7-0.3c13.8,0,17.2,3.3,18.3,16.7
			c1.4,15.9-0.1,31.7-0.3,47.6c0,1.5,0,3.3-2,3.2c-2.2-0.1-1.7-2-1.7-3.4c0-10.6,0-21.2,0.1-31.8c0-5.1-0.7-10.1-1.6-15.2
			c-9,2.4-18.1,2-27.1,1.6c-4.3-0.2-8.5-2.1-11-5.7c-3-4.3-6.9-3.5-10.7-2.9c-4.1,0.7-2.7,4.6-3.4,7.3c-1,3.7-1.8,7.2-4.1,10.4
			c-4.1,5.7-3.8,11.9-0.4,18c2.1,3.9,4.4,7.7,6.6,11.6c7.7,13.5,10.3,27.5,5.4,42.6c-3.7,11.5-0.8,20.4,9.8,27.2
			c8.5,5.4,16.8,11.3,22.9,19.8c3.2,4.5,9.1,5.9,13.6,9.1c-1.3,0-2.5,0-3.8,0c-15.1-6.9-27.5-17.7-40.3-28
			c-6.4-5.1-10.5-12.1-10.2-20.3c0.8-17.5-4.2-33.7-10-49.9c-0.5-1.3,0.1-3.4-1.8-3.7c-9.2-1.5-8.2-9.5-10-15.6
			c-1.7-5.6-0.3-11.8-2.7-17.3c0-6.8,0-13.6,0-20.3c1.5-2.4,3.3-4.6,6.6-3.5c4.2,1.3,4-1.3,3.9-4c-0.5-10.2,0.4-20.3,1.1-30.4
			c1.4-22.8,9.9-41.6,29-55.1c9.8-6.9,20.4-11.6,31.9-14.9C131.6,23.5,138.4,23.5,145.1,23.5z"/>
		<path class="st0" d="M146.2,213.1c-0.5,2.1-1.1,3.8-3.6,1.7c-4-3.3-8.7-4.8-14-4.8c-3.2,0-7.9-6.8-7.4-9.8c0.2-1.2,1.1-1.8,2-2.2
			s1.5,0.2,1.9,1.1c3.2,7.6,10.9,8.4,17.3,11.1C144,210.9,146.2,210.4,146.2,213.1z"/>
		<path class="st0" d="M215.2,38c9.7-2.8,9.7-2.8,13.1,5.4c6.4,15.4,12.8,30.8,19,46.3c0.7,1.7,3.2,3.9,0.6,5.5
			c-2.8,1.8-6.1,3.5-9.3,3.8c-1.9,0.2-1.8-3.3-2-5.4c-1.7-15-7.8-28.3-14.6-41.5C219.7,47.6,217.6,43,215.2,38z"/>
	</g>
</g>
</svg>
