<?xml version="1.0" encoding="utf-8"?>
<!-- Generator: Adobe Illustrator 19.2.1, SVG Export Plug-In . SVG Version: 6.00 Build 0)  -->
<svg version="1.1" id="Layer_1" xmlns="http://www.w3.org/2000/svg" xmlns:xlink="http://www.w3.org/1999/xlink" x="0px" y="0px"
	 viewBox="0 0 300 300" style="enable-background:new 0 0 300 300;" xml:space="preserve">
<style type="text/css">
	.st0{fill:#DBDBDB;}
</style>
<g id="_x32_7efdN_1_">
	<g>
		<path class="st0" d="M66.5,107.9c4.2,0,8.3,0,12.5,0c-0.6,4.3,2.6,3.1,4.7,3.1c27.8,0,55.6,0.1,83.3-0.1c3.6,0,5.7,1.1,7.4,4.2
			c2.7,5,6.1,9.7,8.8,14.7c1.7,3.1,3.8,4.2,7.4,4.2c25.9-0.2,51.7-0.1,77.6-0.1c8.2,0,13.7,5.2,13.9,13.2c0.1,2.7,0.7,4,3.5,3.5
			c3.5-0.6,4.2,1.2,3.9,4.2c-0.2,1.9,0,3.8,0,5.7c0,1.2,0,2.7-1.8,2.5c-3.4-0.5-4.6,1.3-6.6,4c-4.6,6.3-8.2,13.3-10.9,20.4
			c-1.4,3.5-2.5,3.9-5.5,3.9c-15.8-0.1-31.6,0-47.4,0c-3.1,0-6.9,0.9-9.1-0.6c-2.3-1.5-0.6-5.5-0.9-8.3c0-0.2,0-0.3,0-0.5
			c-0.1-0.8,0-1.8-1.2-2s-2,0.3-2,1.6s-0.2,2.4-1.9,2.4c-1.5,0-2.2-0.6-2.2-2.1c0-3-2.3-1.8-3.8-2c-2.2-0.3-2.7,0.9-2.5,2.8
			c0.2,1.8-0.7,2.4-2.4,2.4c-2,0.1-2.9-0.7-2.7-2.7c0.2-1.6-0.3-2.7-2.3-2.5c-1.3,0.1-3-0.4-3,1.8c0.1,2.8-1.9,2.3-3.6,2.3
			c-5.7,0-11.5,0.1-17.2,0c-1.9,0-3.4,0.2-3.3,2.7c0.1,4.5,0.1,9,0,13.5c0,2.1,0.9,2.5,2.8,2.7c5,0.5,6.5-3.6,8.5-6.5
			c3.1-4.5,5.7-5.1,10.4-2c3.1,2,2.9,3.2,1.2,5.9c-7.2,10.8-14.3,21.7-21.2,32.7c-1.5,2.3-2.9,3.3-5.7,3.2c-7.8-0.2-15.6-0.3-23.4,0
			c-4.2,0.2-4.8-1.4-4.7-5c0.2-11.8-0.1-23.6,0.2-35.4c0.1-3.8-1.1-4.7-4.7-4.5c-5.9,0.3-11.8,0.3-17.7,0c-3.1-0.1-4.6,1-5.9,3.8
			c-4.5,9.6-9.3,19-13.8,28.5c-1.2,2.5-2.3,3.2-5,1.8c-8.1-4.3-16.3-8.4-24.7-12.3c-2.9-1.4-3.2-2.7-1.9-5.5
			c5.3-11.3,10.2-22.8,15.5-34.1c1.3-2.8,1.1-4.1-1.5-6.3c-6-5.3-13-3.8-19.8-3.9c-7.1-0.1-7.3,0-7.1,7c0.1,3.9-1.3,4.6-4.8,4.5
			c-6.4-0.2-12.8,0-19.3,0c0-15.6,0-31.3,0-46.9c6.8,0,13.5,0,20.3,0.1c1.2,0,2.9-0.8,3.6,1c1.2,3.3,3.5,2.6,5.1,1
			C52.5,122.6,60.4,116.2,66.5,107.9z M41.2,150.7c1.9,0,3.7,0,5.6,0c73.1,0,146.1,0,219.2,0c2.3,0,4.5,0.1,6.8,0
			c1.2-0.1,3,0.7,3.2-1.5c0.1-1.7,0.4-3.5-1.6-4.5c-2.8-1.4-5.6-2.5-8.9-2.4c-28.6,0.1-57.3,0.1-85.9,0c-1.9,0-4.1,1-5.3-1.8
			c-1.9-4.5-6-1.9-9-2.1c-3-0.2-2,2.8-2,4.4c0,4.9-2.1,6.1-7,6c-34-0.2-68-0.1-102-0.1C49.8,148.5,45.4,148.7,41.2,150.7z
			 M72.7,136.1c24.7,0,48.1,0,71.6,0c1.7,0,3.1-0.5,4.1-1.8c2.2-3,5.1-3.8,8.6-3.5c2.1,0.2,4.5,0.8,4.5-3c0-3.6-2-3.3-4.3-3.3
			c-23.8,0-47.6,0-71.4,0c-1.7,0-3.4-0.2-4.7,1.5C78.7,129.2,76.1,132.1,72.7,136.1z M105.1,182.5c0.8,0.2,1.1,0.4,1.5,0.4
			c4.5,0,9,0,13.5,0.1c6.9,0,6.9,0,6.9-6.8c0-8.9,0-9-8.9-8.9c-2.2,0-5-1.3-6.5,1.7C109.4,173.5,107.3,178,105.1,182.5z M46.5,136.4
			c0.3,0.3,0.7,0.7,1,1c4.6-4.4,9.5-8.5,13.8-13.3c4.6-5.2,9.7-7.1,16.7-6.9c27.8,0.5,55.6,0.3,83.3,0.1c5.8-0.1,9.4,1.6,11.8,7
			c1.7,3.9,4.2,7.4,6.4,11.1c0.5-0.3,0.9-0.6,1.4-0.9c-2.5-4.5-5.3-8.8-7.4-13.4c-1.8-3.9-4.3-5-8.4-4.9c-28.1,0.2-56.3,0.1-84.4,0
			c-1.5,0-3.9,1.1-4.5-1.1c-1.4-5.5-5.3-3.6-7.3-1.7C61.1,120.7,53.9,128.7,46.5,136.4z"/>
	</g>
</g>
</svg>
