<?xml version="1.0" encoding="utf-8"?>
<!-- Generator: Adobe Illustrator 19.2.1, SVG Export Plug-In . SVG Version: 6.00 Build 0)  -->
<svg version="1.1" id="Layer_1" xmlns="http://www.w3.org/2000/svg" xmlns:xlink="http://www.w3.org/1999/xlink" x="0px" y="0px"
	 viewBox="0 0 300 300" style="enable-background:new 0 0 300 300;" xml:space="preserve">
<style type="text/css">
	.st0{fill:#DBDBDB;}
</style>
<g id="anYqrQ_1_">
	<g>
		<path class="st0" d="M152.9,276.5c-15.9,1.8-32.3,0.3-47.9-4.8C69.2,260,44.7,232,33.4,196.5C14.6,137.2,56.9,70.8,116.7,58.7
			c14-2.8,14-2.8,12.8-17.2c0-0.4,0-0.7,0-1.1c0-3.2-3.7-1.7-5.4-2c-3.2-0.5-2.5-5-2.4-7.3c0-2.8,0-5.6,0-8.4
			c11.5,0,22.9-0.3,34.3-0.4c0.2,3.5,0.3,7,0.4,10.6c0.1,2.7,0.5,5.2-2.6,6.3c-2,0.7-4.3-0.3-5.7,1.6c-1.1,1.5-0.8,3.7-0.7,5.4
			c0.2,1.8,0.2,3.7,0,5.6c-0.3,3.3,0.4,4.8,4.3,5.2c19.1,2,36.6,8.5,52.3,19.7c2.2,1.6,3.5,1.3,5.2-0.6c3.3-3.8,6.9-7.4,10.2-11.2
			c1.6-1.9,2.8-1.8,4.5-0.1c4.4,4.3,8.9,8.6,13.6,12.6c2.3,2,1.5,3.2-0.1,4.9c-3.1,3.2-6,6.7-9.3,9.8c-2.7,2.5-3,4.2-0.5,7.3
			c7.5,9.2,12.9,20,16.7,31.2c1.9,5.6,3.4,11.4,4.7,17.2c1.2,5.6,1,10.8,0.8,16.5c-0.6,22.6-4.8,45.1-17.3,64.4
			c-1,1.6-2.1,3.2-3.3,4.8C210.9,258.2,182.7,273.2,152.9,276.5z M116.1,248.7c-2.5-1.3-5-2.5-7.4-3.8c-43-22.8-58-75.2-33.3-116.8
			c28.1-47.3,95.6-50.5,126.1-5.6c15.8,23.3,16.5,48.2,1.9,72.3c-13.5,22.1-33.7,32.6-60,29.9c-25.8-2.7-47.3-24.4-49.4-50.2
			c-2.9-36,32.7-64.8,65.5-49.5c25.3,11.8,31.5,44.3,11.6,62.2c-16.2,14.5-42.1,7.5-46.8-12.6c-3-12.9,7.7-25.8,19.9-23.9
			c4.2,0.6,7.1,3.1,7.1,7.3c0,4.1-2.5,7.2-6.9,7.3c-2.4,0.1-4.5,0.1-5.4,2.8c-1,2.8-0.1,5.2,1.5,7.4c3.8,5.2,12.2,6.3,18.3,2.6
			c12.2-7.4,12.7-25.8,1-35.6c-9.4-7.8-23-9-33.6-3c-11.5,6.4-19.2,21.8-17.7,34c3.8,31.1,37.6,44.9,62.5,32.3
			c18.2-9.2,27.3-25,27.7-44.9s-8.9-35.7-25.9-46.2c-20.3-12.5-41.5-13.2-62.1-1c-22.2,13.1-32.6,33.4-32.3,58.9
			c0.5,41.8,41.2,75.1,86.1,67.2c34-6,67-36.3,61-84.3c-6.2-48.7-54.2-84-102.2-73.8c-46.6,9.9-75.4,51-68.9,98.4
			C58.6,212.2,85.4,242.1,116.1,248.7z"/>
	</g>
</g>
</svg>
