<?xml version="1.0" encoding="utf-8"?>
<!-- Generator: Adobe Illustrator 19.2.1, SVG Export Plug-In . SVG Version: 6.00 Build 0)  -->
<svg version="1.1" id="Layer_1" xmlns="http://www.w3.org/2000/svg" xmlns:xlink="http://www.w3.org/1999/xlink" x="0px" y="0px"
	 viewBox="0 0 300 300" style="enable-background:new 0 0 300 300;" xml:space="preserve">
<style type="text/css">
	.st0{fill:#DBDBDB;}
</style>
<g id="ai1m0g_1_">
	<g>
		<path class="st0" d="M114.6,260.9c-6.6-1.4-12.8-5-17.2-10.2c-5.6-6.7-8.2-15.6-6.7-24.2c2.6-14.6,15.1-25,30-25
			c14.5,0.1,26.9,10.6,29.5,25c2.5,14.2-6,28.5-20.1,33.5C125.2,261.8,119.8,262,114.6,260.9z"/>
		<path class="st0" d="M278.3,74.6c-1.7,9.1-12.9,19-18.3,24.2c-9.3,8.9-20.2,15.9-31,22.8c-2.8,1.8-3.3-0.3-4.5-1.9
			c-1.8-2.4-0.4-3.3,1.6-4.5c11.4-6.7,22.1-14.2,30.8-24.3c2.5-2.9,4.7-6,6-9.7c2.4-6.6,0.1-11.7-6.8-12.6c-6.4-0.8-8.6-4.5-10-9.7
			c11.7-2.9,28.4-3.2,32.1,10.8C278.6,71.3,278.6,73,278.3,74.6z"/>
		<path class="st0" d="M176.8,250.5c-6.7,0.1-12.7-0.9-18.8-1.8c-2.6-0.4-3-1.5-2.1-3.7c0.7-1.7,1.3-3.4,1.8-5.2
			c1.1-4.3,3.1-6.7,8.1-7.6c8.9-1.5,12.2-8.4,9-16.9c-3.3-9-9.8-15.8-16.7-22.1c-16.4-15.2-35.5-26.2-55.7-35.5
			c-1.5-0.7-4.1-0.6-3.7-3.2c0.5-2.9,1.4-5.8,2.3-8.6c0.3-0.7,1.5-0.2,2.2,0.1c35.6,15.8,69,34.6,93.6,66c3.7,4.7,6.5,10,8,15.9
			c2.2,9.1-1.2,16.1-9.9,19.7C189,250.1,182.7,250.7,176.8,250.5z"/>
		<path class="st0" d="M202.7,161.5c-13.5,0-24.1-10.5-24.1-23.9s10.6-24,24-24c13.2,0,23.8,10.5,23.9,23.7
			C226.5,150.7,216.1,161.4,202.7,161.5z"/>
		<path class="st0" d="M11.6,150.9c-0.2-10,3.7-14.7,10-17.3c10-4.2,20.5-3.6,31-2.2c2.1,0.3,1.9,1.1,1.2,2.6
			c-1.2,2.5-2.4,5.1-3.5,7.7c-0.7,1.7-1.9,2.6-3.9,2.5c-1,0-2,0-3,0.2c-11.9,1.7-16.4,9.6-11,20.3c6.5,13.1,17.6,22,28.9,30.5
			c6.8,5.1,13.9,9.7,21.4,13.8c2.2,1.2,3,2.5,1.1,4.4c-1.6,1.6-1.3,6.4-5.7,3.8c-21.4-12.8-41.7-26.9-57-47
			C16,163.8,11.8,156.8,11.6,150.9z"/>
		<path class="st0" d="M156.2,146.4c-4.6,0.2-8.9-0.2-13-1.7c-7.4-2.9-10.2-8.3-7.9-15.9c2.1-7.2,6.6-13,11.7-18.4
			c17.4-18.3,38.7-30.8,61.6-40.9c1.2-0.5,3.2-2,3.5,0.5c0.2,2.3,3.3,5.1-0.3,7.1c-2.9,1.6-6,2.8-9,4.3
			c-13.9,7.1-26.9,15.4-37.6,26.9c-3.3,3.5-6.3,7.3-7.9,12c-2.2,6.3-0.4,11.1,6.1,12.2c6.5,1.2,6.3,6.3,8,10.4
			c0.8,1.9-1.1,2.1-2.4,2.3C164.5,145.8,160.3,146.8,156.2,146.4z"/>
		<path class="st0" d="M94.5,142.2c-0.1,9.2-7.4,16.3-16.6,16.3c-9.2-0.1-16.3-7.4-16.3-16.6c0.1-9.2,7.4-16.3,16.6-16.3
			C87.4,125.6,94.5,132.9,94.5,142.2z"/>
	</g>
</g>
<circle class="st0" cx="229.3" cy="67.3" r="11.7"/>
</svg>
