<?xml version="1.0" encoding="utf-8"?>
<!-- Generator: Adobe Illustrator 19.2.1, SVG Export Plug-In . SVG Version: 6.00 Build 0)  -->
<svg version="1.1" id="Layer_1" xmlns="http://www.w3.org/2000/svg" xmlns:xlink="http://www.w3.org/1999/xlink" x="0px" y="0px"
	 viewBox="0 0 300 300" style="enable-background:new 0 0 300 300;" xml:space="preserve">
<style type="text/css">
	.st0{fill:#DBDBDB;}
</style>
<g id="UjOeVd_1_">
	<g>
		<path class="st0" d="M215.2,91.3c1.4,0.8,2.8,1.4,4,2.3c23.1,16,42.6,35.8,59.5,58.1c1.8,2.4,1.8,4,0,6.3
			c-16.9,22.4-36.5,42-59.5,58.2c-3.1,2.2-5.2,1.8-8.2-0.2c-22.9-16-42.2-35.6-59-57.7c-2-2.6-1.9-4.3,0-6.9
			c16.9-22.1,36.1-41.8,59.1-57.6C212.3,92.9,213.7,92.2,215.2,91.3z M214,176.1c12.3,0,21.9-9.5,21.7-21.5
			c-0.2-11.9-9.5-21-21.5-21.1c-12.1,0-21.4,9-21.5,20.9C192.7,166.9,201.7,176.1,214,176.1z M249.2,176.1c4.2-0.3,6.7-2.6,6.8-7
			c0.1-4.8-3.1-7.5-7.4-7.4c-4.3,0.1-7.4,3-7,7.7C242,173.8,244.7,176,249.2,176.1z"/>
		<path class="st0" d="M199.6,82c-5.1,4-9.9,7.8-14.7,11.6c-1.4,1.1-2.9,0.8-4.4,0.2c-34.8-14-65-2.7-93.5,17.3
			c-16.2,11.4-30.4,25.1-43.2,40.3c-1.4,1.6-3.4,2.9-1.2,5.5c21.4,24.7,44.8,47,76,59.2c19.5,7.6,39.2,8.3,58.9,0.7
			c4.2-1.6,7.3-1.4,10.6,1.7c3.3,3.1,7.1,5.7,11.3,9.1c-10.7,6-21.7,9.6-33.2,11.6c-33.9,5.9-62.9-6.1-89.7-25.1
			c-21.7-15.3-39.9-34.2-55.9-55.3c-1.7-2.2-3-4-0.7-6.9c24.2-31.3,51.8-58.5,88.8-74.3C139.2,64.5,169.4,66.5,199.6,82z"/>
		<path class="st0" d="M104.2,153.9c0.5-21.8,25.8-39.2,46-31.8c3.2,1.2,3.5,2.4,1.1,5c-6.5,7.1-12.1,15-17.7,22.8
			c-2.5,3.5-3,6-0.2,9.7c5.8,7.7,11.2,15.7,17.8,22.8c2.7,3,2,4.1-1.4,5.2C128.5,194.6,103.6,176.2,104.2,153.9z"/>
	</g>
</g>
</svg>
